<svg height="1798" width="3037" xmlns="http://www.w3.org/2000/svg" xmlns:xlink="http://www.w3.org/1999/xlink"><defs><path id="a" d="m84-151c13-25 34-51 72-40l-8 41c-81-20-77 86-92 150h-50l36-190h47" fill="#333"/><path id="b" d="m124-194c51 0 84 22 84 74-1 76-41 124-114 124-51 0-83-27-83-78 0-74 41-120 113-120zm-25 164c46 0 58-42 58-86 0-27-11-44-37-44-44 0-55 40-57 84-1 27 10 45 36 46" fill="#333"/><path id="c" d="m132-28c-14 19-31 32-63 32-39 0-59-27-59-66 0-70 24-129 92-132 31-1 47 14 56 35l19-102h49l-47 261h-49zm-70-41c0 22 7 39 29 39 45-2 54-45 57-90 2-27-10-40-33-40-44 0-53 48-53 91" fill="#333"/><path id="d" d="m69 3c-96 0-34-126-28-193h49l-25 133c6 42 62 18 71-6 14-38 17-86 28-127h50l-36 190h-47c0-11 4-26 3-33-14 20-30 37-65 36" fill="#333"/><path id="e" d="m72-63c-8 23 5 39 32 30l-6 32c-44 15-86-5-75-63l18-93h-26l7-33h28l24-45h31l-8 45h35l-6 33h-36" fill="#333"/><path id="f" d="m67-162c32-53 139-36 121 50-13 61-25 114-91 116-29 0-45-15-55-35-4 37-14 70-20 106h-31l50-265h29c-1 10 0 20-3 28zm89 36c0-26-10-43-35-43-54 0-67 50-69 103-1 29 14 45 42 46 53 0 62-58 62-106" fill="#333"/><path id="g" d="m66-151c12-25 30-51 66-40l-6 26c-81-11-68 100-88 165h-32l36-190h30" fill="#333"/><path id="h" d="m30-147c31-64 166-65 159 27-6 71-31 121-103 124-77 4-85-92-56-151zm58 127c53 0 68-48 68-100 0-31-11-51-44-50-52 1-68 46-68 97 0 32 13 53 44 53" fill="#333"/><path id="i" d="m133-28c-30 54-138 36-120-49 13-62 24-115 90-117 29-1 46 15 56 35l19-102h32l-50 261h-30zm-88-36c-2 27 10 43 35 43 54-1 69-50 69-103 0-29-15-46-42-46-53-1-58 58-62 106" fill="#333"/><path id="j" d="m67 3c-93-2-31-127-26-193h32l-25 140c-3 39 53 32 70 12 30-34 30-101 43-152h32l-36 190h-30c1-10 6-24 4-33-14 20-29 37-64 36" fill="#333"/><path id="k" d="m44-68c0 29 11 47 38 47 30 0 42-19 51-41l28 9c-13 32-35 57-79 57-51 0-72-33-70-89 3-77 74-140 146-93 12 8 15 23 18 40l-31 5c-1-22-13-36-36-36-52 0-65 49-65 101" fill="#333"/><path id="l" d="m51-54c-9 22 5 41 31 30l-3 23c-36 15-69-3-60-51l22-115h-22l5-23h22l19-43h21l-9 43h35l-4 23h-35" fill="#333"/><path id="m" d="m-28 44v-13h207v13z" fill="#333"/><path id="n" d="m67-158c22-48 132-52 116 29l-25 129h-32l25-140c3-38-53-32-70-12-29 35-30 100-43 152h-32l36-190h30" fill="#333"/><path id="o" d="m165-48c-4 18 1 34 23 27l-3 20c-29 8-62 0-52-35h-2c-15 22-32 40-68 40-33 0-55-20-55-53 0-68 71-67 138-67 10-26 0-56-31-54-26 1-42 9-47 31l-32-5c8-67 160-71 144 15-5 28-9 54-15 81zm-123-2c3 52 80 24 89-6 7-12 7-24 11-38-47 1-103-4-100 44" fill="#333"/><path id="p" d="m248-111c6-24 9-61-24-58-72 9-57 108-77 169h-31l26-142c3-37-50-30-64-10-26 37-28 101-41 152h-31l36-190h30c-1 10-6 24-4 32 13-43 101-52 105 5 13-22 29-41 61-41 90 0 28 129 23 194h-31" fill="#333"/><path id="q" d="m111-194c62-3 86 47 72 106h-138c-7 38 6 69 45 68 27-1 43-14 53-32l24 11c-15 26-38 45-80 45-49-1-75-27-75-75 0-70 32-119 99-123zm44 81c14-66-71-72-95-28-4 8-8 17-11 28z" fill="#333"/><path id="r" d="m50-231 6-30h32l-6 30zm-44 231 37-190h31l-37 190z" fill="#333"/><path id="s" d="m55-144c13 50 104 24 104 88 0 77-144 79-158 17l26-10c6 40 102 42 102-4-13-50-104-23-104-87 0-71 143-71 148-8l-29 4c-5-35-85-37-89 0" fill="#333"/><path id="t" d="m68-162c25-46 127-43 121 31-6 71-20 132-91 135-29 1-45-15-55-35l-7 31h-31l52-261h31zm88 36c2-27-9-43-34-43-55 0-70 51-70 103 0 29 15 45 43 46 52 0 58-58 61-106" fill="#333"/><path id="u" d="m103-194c29 0 47 14 56 36 2-11 5-23 8-32h30l-37 185c-3 66-78 102-139 67-12-7-17-17-20-32l28-7c7 42 83 31 92-3 4-16 9-38 13-55-13 20-29 36-62 36-40 0-60-25-60-64 0-71 23-131 91-131zm4 24c-53 0-58 54-61 104-2 27 10 44 36 44 49 0 65-50 67-102 1-29-15-46-42-46" fill="#333"/><path id="v" d="m89 0h-37l-32-190h33l21 165 89-165h34" fill="#333"/><path id="w" d="m6 0 50-261h32l-51 261z" fill="#333"/><path id="x" d="m198-190-129 220c-16 28-44 53-89 42 4-11-1-27 19-22 33-1 43-29 59-52l-38-188h32l27 156 84-156z" fill="#333"/><path id="y" d="m161-211c-63 0-91 46-91 110 0 39 17 65 58 64 38-1 60-20 74-45l40 20c-22 39-58 62-117 66-116 9-135-148-68-212 33-50 166-62 196-1 4 8 9 18 11 27l-48 12c-6-24-25-41-55-41" fill="#333"/><path id="z" d="m255-194c90 0 29 129 24 194h-49l25-136c-7-39-53-14-60 9-12 38-18 85-28 127h-49l25-136c2-29-39-23-50-7-24 35-25 96-37 143h-50l36-190h48c-1 10-6 24-4 32 12-20 27-36 57-36s46 15 50 41c14-21 29-41 62-41" fill="#333"/><path id="A" d="m114-194c63-2 87 48 72 110h-123c-3 28 1 55 31 54 21-1 32-13 37-29l44 13c-15 32-38 50-84 50-50 0-80-26-80-77 0-71 33-119 103-121zm30 77c14-47-50-61-67-22-3 6-6 13-8 22z" fill="#333"/><path id="B" d="m14 0 48-248h34l-48 248z" fill="#333"/><path id="C" d="m248-139c-1 125-104 148-237 139l48-248c105-6 190 8 189 109zm-34 0c1-70-52-87-126-82l-38 194c98 7 163-21 164-112" fill="#333"/><path id="D" d="m76-167-32 167h-32l33-167h-27l4-23h27c3-47 25-81 82-69l-4 24c-35-8-44 15-46 45h37l-5 23z" fill="#333"/><path id="E" d="m188 0h-37l-8-164-72 164h-37l-16-190h31l8 164 75-164h34l8 164 74-164h31" fill="#333"/><path id="F" d="m67-158c15-20 31-36 64-36 94 0 33 127 27 194h-32l25-140c3-38-53-32-70-12-29 35-30 101-44 152h-31l51-261h31" fill="#333"/><g id="G"><use transform="scale(.04938272)" xlink:href="#F"/><use transform="matrix(.04938272 0 0 .04938272 9.876543 0)" xlink:href="#h"/><use transform="matrix(.04938272 0 0 .04938272 19.753086 0)" xlink:href="#j"/><use transform="matrix(.04938272 0 0 .04938272 29.62963 0)" xlink:href="#s"/><use transform="matrix(.04938272 0 0 .04938272 38.518519 0)" xlink:href="#q"/><use transform="matrix(.04938272 0 0 .04938272 48.395062 0)" xlink:href="#m"/><use transform="matrix(.04938272 0 0 .04938272 58.271605 0)" xlink:href="#n"/><use transform="matrix(.04938272 0 0 .04938272 68.148148 0)" xlink:href="#h"/></g><g id="H"><use transform="scale(.04938272)" xlink:href="#k"/><use transform="matrix(.04938272 0 0 .04938272 8.888889 0)" xlink:href="#r"/><use transform="matrix(.04938272 0 0 .04938272 12.790123 0)" xlink:href="#l"/><use transform="matrix(.04938272 0 0 .04938272 17.728395 0)" xlink:href="#x"/></g><g id="I"><use transform="scale(.04938272)" xlink:href="#s"/><use transform="matrix(.04938272 0 0 .04938272 8.888889 0)" xlink:href="#l"/><use transform="matrix(.04938272 0 0 .04938272 13.82716 0)" xlink:href="#o"/><use transform="matrix(.04938272 0 0 .04938272 23.703704 0)" xlink:href="#l"/><use transform="matrix(.04938272 0 0 .04938272 28.641975 0)" xlink:href="#q"/></g><g id="J"><use transform="scale(.04938272)" xlink:href="#f"/><use transform="matrix(.04938272 0 0 .04938272 9.876543 0)" xlink:href="#r"/><use transform="matrix(.04938272 0 0 .04938272 13.777778 0)" xlink:href="#n"/><use transform="matrix(.04938272 0 0 .04938272 23.654321 0)" xlink:href="#k"/><use transform="matrix(.04938272 0 0 .04938272 32.54321 0)" xlink:href="#h"/><use transform="matrix(.04938272 0 0 .04938272 42.419753 0)" xlink:href="#i"/><use transform="matrix(.04938272 0 0 .04938272 52.296296 0)" xlink:href="#q"/></g><path id="K" d="m50-224 7-37h49l-7 37zm-44 224 37-190h49l-37 190z" fill="#333"/><path id="L" d="m240 0 2-218c-23 76-54 145-80 218h-23l-81-218 1 218h-29v-248h44l77 211c21-75 51-140 76-211h43v248z" fill="#3a414a"/><path id="M" d="m205 0-28-72h-113l-28 72h-35l101-248h38l99 248zm-38-99-47-123c-12 45-31 82-46 123z" fill="#3a414a"/><path id="N" d="m190 0-132-211 1 211h-29v-248h39l133 213-2-213h31v248z" fill="#3a414a"/><path id="O" d="m143 4c-82 0-121-48-125-129-5-107 100-154 193-111 17 8 29 25 37 43l-32 9c-13-25-37-40-76-40-61 0-88 39-88 99 0 61 29 100 91 101 35 0 62-11 79-27v-45h-74v-28h105v86c-25 25-61 42-110 42" fill="#3a414a"/><path id="P" d="m30 0v-248h187v28h-154v79h144v27h-144v87h162v27z" fill="#3a414a"/><path id="Q" d="m185-189c-5-48-123-54-124 2 14 75 158 14 163 119 3 78-121 87-175 55-17-10-28-26-33-46l33-7c5 56 141 63 141-1 0-78-155-14-162-118-5-82 145-84 179-34 5 7 8 16 11 25" fill="#3a414a"/><path id="R" d="m9 0 6-27h63l36-188-63 39 6-31 66-41h29l-42 221h60l-5 27z"/><path id="S" d="m14 0 8-38h34l-8 38z"/><g id="T"><use transform="scale(.05)" xlink:href="#R"/><use transform="matrix(.05 0 0 .05 10 0)" xlink:href="#S"/><use transform="matrix(.05 0 0 .05 15 0)" xlink:href="#S"/><use transform="matrix(.05 0 0 .05 20 0)" xlink:href="#R"/></g><path id="U" d="m9 0 6-27h63l36-188-63 39 6-31 66-41h29l-42 221h60l-5 27z" fill="#3a414a"/><path id="V" d="m14 0 8-38h34l-8 38z" fill="#3a414a"/><path id="W" d="m95-196 47-18 8 23-50 13 33 44-21 13-27-46-27 45-21-12 33-44-49-13 8-23 47 19-2-53h24" fill="#3a414a"/><path id="X" d="m140-251c81 0 123 46 123 126 0 79-44 129-123 129-81 0-123-49-123-129s42-126 123-126zm0 227c63 0 89-41 89-101s-29-99-89-99c-61 0-89 39-89 99s28 100 89 101" fill="#3a414a"/><path id="Y" d="m127-220v220h-34v-220h-85v-28h204v28z" fill="#3a414a"/><path id="Z" d="m33 0v-248h34v248z" fill="#3a414a"/><g id="aa"><path d="m212-179c-10-28-35-45-73-45-59 0-87 40-87 99 0 60 29 101 89 101 43 0 62-24 78-52l27 14c-18 38-51 66-107 66-80 0-117-50-121-129-6-104 99-153 187-111 19 9 31 26 39 46" fill="#3a414a" transform="scale(.04938272)"/><use transform="matrix(.04938272 0 0 .04938272 12.790123 0)" xlink:href="#X"/><use transform="matrix(.04938272 0 0 .04938272 26.617284 0)" xlink:href="#N"/><use transform="matrix(.04938272 0 0 .04938272 39.407407 0)" xlink:href="#Y"/><use transform="matrix(.04938272 0 0 .04938272 48.888889 0)" xlink:href="#M"/><use transform="matrix(.04938272 0 0 .04938272 60.740741 0)" xlink:href="#Z"/><use transform="matrix(.04938272 0 0 .04938272 65.679012 0)" xlink:href="#N"/><use transform="matrix(.04938272 0 0 .04938272 78.469136 0)" xlink:href="#Q"/></g><g id="ab"><path d="m16-82c0-90 25-169 113-169 48 0 68 33 68 82 0 90-27 173-113 173-47 0-68-35-68-86zm30 5c0 32 11 55 40 55 69 0 76-79 80-149 2-32-10-55-39-55-69 0-81 81-81 149" fill="#3a414a" transform="scale(.04938272)"/><use transform="matrix(.04938272 0 0 .04938272 9.876543 0)" xlink:href="#V"/><use transform="matrix(.04938272 0 0 .04938272 14.814815 0)" xlink:href="#V"/><use transform="matrix(.04938272 0 0 .04938272 19.753086 0)" xlink:href="#W"/></g><path id="ac" d="m166-52c-4 17 5 29 24 23l-3 27c-30 11-74 1-67-34-15 21-29 40-64 40-33 0-53-19-54-53 0-64 63-67 128-67 10-22 3-53-29-45-13 3-22 10-25 24l-46-5c5-64 156-77 153 0-1 33-11 60-17 90zm-69-36c-44-9-64 57-19 57 31 0 42-28 47-57z" fill="#333"/><path id="ad" d="m67-162c32-53 139-36 121 50-13 61-25 114-91 116-29 0-45-15-55-35-4 37-14 70-20 106h-31l50-265h29c-1 10 0 20-3 28zm89 36c0-26-10-43-35-43-54 0-67 50-69 103-1 29 14 45 42 46 53 0 62-58 62-106" fill="#3a414a"/><path id="ae" d="m165-48c-4 18 1 34 23 27l-3 20c-29 8-62 0-52-35h-2c-15 22-32 40-68 40-33 0-55-20-55-53 0-68 71-67 138-67 10-26 0-56-31-54-26 1-42 9-47 31l-32-5c8-67 160-71 144 15-5 28-9 54-15 81zm-123-2c3 52 80 24 89-6 7-12 7-24 11-38-47 1-103-4-100 44" fill="#3a414a"/><path id="af" d="m198-190-129 220c-16 28-44 53-89 42 4-11-1-27 19-22 33-1 43-29 59-52l-38-188h32l27 156 84-156z" fill="#3a414a"/><path id="ag" d="m248-111c6-24 9-61-24-58-72 9-57 108-77 169h-31l26-142c3-37-50-30-64-10-26 37-28 101-41 152h-31l36-190h30c-1 10-6 24-4 32 13-43 101-52 105 5 13-22 29-41 61-41 90 0 28 129 23 194h-31" fill="#3a414a"/><path id="ah" d="m111-194c62-3 86 47 72 106h-138c-7 38 6 69 45 68 27-1 43-14 53-32l24 11c-15 26-38 45-80 45-49-1-75-27-75-75 0-70 32-119 99-123zm44 81c14-66-71-72-95-28-4 8-8 17-11 28z" fill="#3a414a"/><path id="ai" d="m67-158c22-48 132-52 116 29l-25 129h-32l25-140c3-38-53-32-70-12-29 35-30 100-43 152h-32l36-190h30" fill="#3a414a"/><path id="aj" d="m51-54c-9 22 5 41 31 30l-3 23c-36 15-69-3-60-51l22-115h-22l5-23h22l19-43h21l-9 43h35l-4 23h-35" fill="#3a414a"/><path id="ak" d="m-28 44v-13h207v13z" fill="#3a414a"/><path id="al" d="m133-28c-30 54-138 36-120-49 13-62 24-115 90-117 29-1 46 15 56 35l19-102h32l-50 261h-30zm-88-36c-2 27 10 43 35 43 54-1 69-50 69-103 0-29-15-46-42-46-53-1-58 58-62 106" fill="#3a414a"/><path id="am" d="m50-231 6-30h32l-6 30zm-44 231 37-190h31l-37 190z" fill="#3a414a"/><path id="an" d="m55-144c13 50 104 24 104 88 0 77-144 79-158 17l26-10c6 40 102 42 102-4-13-50-104-23-104-87 0-71 143-71 148-8l-29 4c-5-35-85-37-89 0" fill="#3a414a"/><path id="ao" d="m30-147c31-64 166-65 159 27-6 71-31 121-103 124-77 4-85-92-56-151zm58 127c53 0 68-48 68-100 0-31-11-51-44-50-52 1-68 46-68 97 0 32 13 53 44 53" fill="#3a414a"/><path id="ap" d="m67 3c-93-2-31-127-26-193h32l-25 140c-3 39 53 32 70 12 30-34 30-101 43-152h32l-36 190h-30c1-10 6-24 4-33-14 20-29 37-64 36" fill="#3a414a"/><g id="aq"><use transform="scale(.04938272)" xlink:href="#ad"/><path d="m66-151c12-25 30-51 66-40l-6 26c-81-11-68 100-88 165h-32l36-190h30" fill="#3a414a" transform="matrix(.04938272 0 0 .04938272 9.876543 0)"/><use transform="matrix(.04938272 0 0 .04938272 15.753086 0)" xlink:href="#ao"/><use transform="matrix(.04938272 0 0 .04938272 25.62963 0)" xlink:href="#al"/><use transform="matrix(.04938272 0 0 .04938272 35.506173 0)" xlink:href="#ap"/><path d="m44-68c0 29 11 47 38 47 30 0 42-19 51-41l28 9c-13 32-35 57-79 57-51 0-72-33-70-89 3-77 74-140 146-93 12 8 15 23 18 40l-31 5c-1-22-13-36-36-36-52 0-65 49-65 101" fill="#3a414a" transform="matrix(.04938272 0 0 .04938272 45.382716 0)"/><use transform="matrix(.04938272 0 0 .04938272 54.271605 0)" xlink:href="#aj"/><use transform="matrix(.04938272 0 0 .04938272 59.209877 0)" xlink:href="#ak"/><path d="m133-28c-30 54-138 36-120-49 13-62 24-115 90-117 29-1 46 15 56 35 2-12 6-24 8-34h31l-54 268h-31zm-88-36c-2 27 10 43 35 43 54-1 69-50 69-103 0-29-15-46-42-46-53-1-58 58-62 106" fill="#3a414a" transform="matrix(.04938272 0 0 .04938272 69.08642 0)"/><use transform="matrix(.04938272 0 0 .04938272 78.962963 0)" xlink:href="#ap"/><use transform="matrix(.04938272 0 0 .04938272 88.839506 0)" xlink:href="#ae"/><use transform="matrix(.04938272 0 0 .04938272 98.716049 0)" xlink:href="#ai"/><use transform="matrix(.04938272 0 0 .04938272 108.592593 0)" xlink:href="#aj"/><use transform="matrix(.04938272 0 0 .04938272 113.530864 0)" xlink:href="#am"/><use transform="matrix(.04938272 0 0 .04938272 117.432099 0)" xlink:href="#aj"/><use transform="matrix(.04938272 0 0 .04938272 122.37037 0)" xlink:href="#af"/></g><path id="ar" d="m27 0v-27h64v-190l-56 39v-29l58-41h29v221h61v27z"/><path id="as" d="m33 0v-38h34v38z"/><path id="at" d="m80-196 47-18 7 23-49 13 32 44-20 13-27-46-27 45-21-12 33-44-49-13 8-23 47 19-2-53h23"/><path id="au" d="m101-251c68 0 85 55 85 127s-20 128-86 128c-67 0-86-56-86-128 0-73 17-127 87-127zm-1 229c47 0 54-49 54-102s-4-102-53-102c-51 0-55 48-55 102 0 53 5 102 54 102"/><g id="av"><use transform="scale(.05)" xlink:href="#au"/><use transform="matrix(.05 0 0 .05 10 0)" xlink:href="#as"/><use transform="matrix(.05 0 0 .05 15 0)" xlink:href="#as"/><use transform="matrix(.05 0 0 .05 20 0)" xlink:href="#at"/></g><path id="aw" d="m100 10c-23 37-50 77-115 62l7-35c37 9 51-18 65-41l-37-186h51l18 146 73-146h53" fill="#333"/></defs><g transform="translate(-502 -631)"><path d="m0 0h3957.22v2683.9h-3957.22z" fill="#fff"/><path d="m1240 1485a5 5 0 0 1 5-5h250a5 5 0 0 1 5 5v275a5 5 0 0 1 -5 5h-250a5 5 0 0 1 -5-5z" fill="#fff"/><path d="m1240 1555v36h260v-36m-260 70v36h260v-36m-260 70v36h260v-36" fill="#f2f3f5"/><path d="m1240 1520v-35a5 5 0 0 1 5-5h250a5 5 0 0 1 5 5v35" fill="#c3f7c8"/><path d="m1240 1485a5 5 0 0 1 5-5h250a5 5 0 0 1 5 5v275a5 5 0 0 1 -5 5h-250a5 5 0 0 1 -5-5zm0 35h260" fill="none" stroke="#333"/><g transform="translate(1261.2 1505.155556)"><path d="m241-173c-1 82-78 91-166 86l-17 87h-52l48-248c87 0 188-12 187 75zm-53 2c0-43-48-36-90-36l-15 80c50 0 105 7 105-44" fill="#333" transform="scale(.04938272)"/><use transform="matrix(.04938272 0 0 .04938272 11.851852 0)" xlink:href="#a"/><use transform="matrix(.04938272 0 0 .04938272 18.765432 0)" xlink:href="#b"/><use transform="matrix(.04938272 0 0 .04938272 29.580247 0)" xlink:href="#c"/><use transform="matrix(.04938272 0 0 .04938272 40.395062 0)" xlink:href="#d"/><path d="m67-101c-8 29-7 73 27 71 23-2 32-16 39-37l48 9c-11 39-40 62-90 62-55 0-84-32-79-90 6-75 61-124 140-103 26 7 40 29 43 59l-50 4c-1-20-9-34-29-34-35 0-41 29-49 59" fill="#333" transform="matrix(.04938272 0 0 .04938272 51.209877 0)"/><use transform="matrix(.04938272 0 0 .04938272 61.08642 0)" xlink:href="#e"/></g><g transform="translate(1256.2 1542.655556)"><use transform="scale(.04938272)" xlink:href="#f"/><use transform="matrix(.04938272 0 0 .04938272 9.876543 0)" xlink:href="#g"/><use transform="matrix(.04938272 0 0 .04938272 15.753086 0)" xlink:href="#h"/><use transform="matrix(.04938272 0 0 .04938272 25.62963 0)" xlink:href="#i"/><use transform="matrix(.04938272 0 0 .04938272 35.506173 0)" xlink:href="#j"/><use transform="matrix(.04938272 0 0 .04938272 45.382716 0)" xlink:href="#k"/><use transform="matrix(.04938272 0 0 .04938272 54.271605 0)" xlink:href="#l"/><use transform="matrix(.04938272 0 0 .04938272 59.209877 0)" xlink:href="#m"/><use transform="matrix(.04938272 0 0 .04938272 69.08642 0)" xlink:href="#n"/><use transform="matrix(.04938272 0 0 .04938272 78.962963 0)" xlink:href="#o"/><use transform="matrix(.04938272 0 0 .04938272 88.839506 0)" xlink:href="#p"/><use transform="matrix(.04938272 0 0 .04938272 103.604938 0)" xlink:href="#q"/></g><g transform="translate(1256.2 1577.655556)"><use transform="scale(.04938272)" xlink:href="#f"/><use transform="matrix(.04938272 0 0 .04938272 9.876543 0)" xlink:href="#g"/><use transform="matrix(.04938272 0 0 .04938272 15.753086 0)" xlink:href="#h"/><use transform="matrix(.04938272 0 0 .04938272 25.62963 0)" xlink:href="#i"/><use transform="matrix(.04938272 0 0 .04938272 35.506173 0)" xlink:href="#j"/><use transform="matrix(.04938272 0 0 .04938272 45.382716 0)" xlink:href="#k"/><use transform="matrix(.04938272 0 0 .04938272 54.271605 0)" xlink:href="#l"/><use transform="matrix(.04938272 0 0 .04938272 59.209877 0)" xlink:href="#m"/><use transform="matrix(.04938272 0 0 .04938272 69.08642 0)" xlink:href="#f"/><use transform="matrix(.04938272 0 0 .04938272 78.962963 0)" xlink:href="#g"/><use transform="matrix(.04938272 0 0 .04938272 84.839506 0)" xlink:href="#r"/><use transform="matrix(.04938272 0 0 .04938272 88.740741 0)" xlink:href="#k"/><use transform="matrix(.04938272 0 0 .04938272 97.62963 0)" xlink:href="#q"/></g><g transform="translate(1256.2 1612.655556)"><use transform="scale(.04938272)" xlink:href="#f"/><use transform="matrix(.04938272 0 0 .04938272 9.876543 0)" xlink:href="#g"/><use transform="matrix(.04938272 0 0 .04938272 15.753086 0)" xlink:href="#h"/><use transform="matrix(.04938272 0 0 .04938272 25.62963 0)" xlink:href="#i"/><use transform="matrix(.04938272 0 0 .04938272 35.506173 0)" xlink:href="#j"/><use transform="matrix(.04938272 0 0 .04938272 45.382716 0)" xlink:href="#k"/><use transform="matrix(.04938272 0 0 .04938272 54.271605 0)" xlink:href="#l"/><use transform="matrix(.04938272 0 0 .04938272 59.209877 0)" xlink:href="#m"/><use transform="matrix(.04938272 0 0 .04938272 69.08642 0)" xlink:href="#i"/><use transform="matrix(.04938272 0 0 .04938272 78.962963 0)" xlink:href="#q"/><use transform="matrix(.04938272 0 0 .04938272 88.839506 0)" xlink:href="#s"/><use transform="matrix(.04938272 0 0 .04938272 97.728395 0)" xlink:href="#k"/><use transform="matrix(.04938272 0 0 .04938272 106.617284 0)" xlink:href="#g"/><use transform="matrix(.04938272 0 0 .04938272 112.493827 0)" xlink:href="#r"/><use transform="matrix(.04938272 0 0 .04938272 116.395062 0)" xlink:href="#f"/><use transform="matrix(.04938272 0 0 .04938272 126.271605 0)" xlink:href="#l"/><use transform="matrix(.04938272 0 0 .04938272 131.209877 0)" xlink:href="#r"/><use transform="matrix(.04938272 0 0 .04938272 135.111111 0)" xlink:href="#h"/><use transform="matrix(.04938272 0 0 .04938272 144.987654 0)" xlink:href="#n"/></g><g transform="translate(1256.2 1647.655556)"><use transform="scale(.04938272)" xlink:href="#f"/><use transform="matrix(.04938272 0 0 .04938272 9.876543 0)" xlink:href="#g"/><use transform="matrix(.04938272 0 0 .04938272 15.753086 0)" xlink:href="#h"/><use transform="matrix(.04938272 0 0 .04938272 25.62963 0)" xlink:href="#i"/><use transform="matrix(.04938272 0 0 .04938272 35.506173 0)" xlink:href="#j"/><use transform="matrix(.04938272 0 0 .04938272 45.382716 0)" xlink:href="#k"/><use transform="matrix(.04938272 0 0 .04938272 54.271605 0)" xlink:href="#l"/><use transform="matrix(.04938272 0 0 .04938272 59.209877 0)" xlink:href="#m"/><use transform="matrix(.04938272 0 0 .04938272 69.08642 0)" xlink:href="#t"/><use transform="matrix(.04938272 0 0 .04938272 78.962963 0)" xlink:href="#g"/><use transform="matrix(.04938272 0 0 .04938272 84.839506 0)" xlink:href="#o"/><use transform="matrix(.04938272 0 0 .04938272 94.716049 0)" xlink:href="#n"/><use transform="matrix(.04938272 0 0 .04938272 104.592593 0)" xlink:href="#i"/></g><g transform="translate(1256.2 1682.655556)"><use transform="scale(.04938272)" xlink:href="#f"/><use transform="matrix(.04938272 0 0 .04938272 9.876543 0)" xlink:href="#g"/><use transform="matrix(.04938272 0 0 .04938272 15.753086 0)" xlink:href="#h"/><use transform="matrix(.04938272 0 0 .04938272 25.62963 0)" xlink:href="#i"/><use transform="matrix(.04938272 0 0 .04938272 35.506173 0)" xlink:href="#j"/><use transform="matrix(.04938272 0 0 .04938272 45.382716 0)" xlink:href="#k"/><use transform="matrix(.04938272 0 0 .04938272 54.271605 0)" xlink:href="#l"/><use transform="matrix(.04938272 0 0 .04938272 59.209877 0)" xlink:href="#m"/><use transform="matrix(.04938272 0 0 .04938272 69.08642 0)" xlink:href="#r"/><use transform="matrix(.04938272 0 0 .04938272 72.987654 0)" xlink:href="#p"/><use transform="matrix(.04938272 0 0 .04938272 87.753086 0)" xlink:href="#o"/><use transform="matrix(.04938272 0 0 .04938272 97.62963 0)" xlink:href="#u"/><use transform="matrix(.04938272 0 0 .04938272 107.506173 0)" xlink:href="#q"/></g><g transform="translate(1256.2 1717.655556)"><use transform="scale(.04938272)" xlink:href="#f"/><use transform="matrix(.04938272 0 0 .04938272 9.876543 0)" xlink:href="#g"/><use transform="matrix(.04938272 0 0 .04938272 15.753086 0)" xlink:href="#h"/><use transform="matrix(.04938272 0 0 .04938272 25.62963 0)" xlink:href="#i"/><use transform="matrix(.04938272 0 0 .04938272 35.506173 0)" xlink:href="#j"/><use transform="matrix(.04938272 0 0 .04938272 45.382716 0)" xlink:href="#k"/><use transform="matrix(.04938272 0 0 .04938272 54.271605 0)" xlink:href="#l"/><use transform="matrix(.04938272 0 0 .04938272 59.209877 0)" xlink:href="#m"/><use transform="matrix(.04938272 0 0 .04938272 69.08642 0)" xlink:href="#g"/><use transform="matrix(.04938272 0 0 .04938272 74.962963 0)" xlink:href="#o"/><use transform="matrix(.04938272 0 0 .04938272 84.839506 0)" xlink:href="#l"/><use transform="matrix(.04938272 0 0 .04938272 89.777778 0)" xlink:href="#r"/><use transform="matrix(.04938272 0 0 .04938272 93.679012 0)" xlink:href="#n"/><use transform="matrix(.04938272 0 0 .04938272 103.555556 0)" xlink:href="#u"/></g><g transform="translate(1256.2 1752.655556)"><use transform="scale(.04938272)" xlink:href="#f"/><use transform="matrix(.04938272 0 0 .04938272 9.876543 0)" xlink:href="#g"/><use transform="matrix(.04938272 0 0 .04938272 15.753086 0)" xlink:href="#h"/><use transform="matrix(.04938272 0 0 .04938272 25.62963 0)" xlink:href="#i"/><use transform="matrix(.04938272 0 0 .04938272 35.506173 0)" xlink:href="#j"/><use transform="matrix(.04938272 0 0 .04938272 45.382716 0)" xlink:href="#k"/><use transform="matrix(.04938272 0 0 .04938272 54.271605 0)" xlink:href="#l"/><use transform="matrix(.04938272 0 0 .04938272 59.209877 0)" xlink:href="#m"/><use transform="matrix(.04938272 0 0 .04938272 69.08642 0)" xlink:href="#o"/><use transform="matrix(.04938272 0 0 .04938272 78.962963 0)" xlink:href="#v"/><use transform="matrix(.04938272 0 0 .04938272 87.851852 0)" xlink:href="#o"/><use transform="matrix(.04938272 0 0 .04938272 97.728395 0)" xlink:href="#r"/><use transform="matrix(.04938272 0 0 .04938272 101.62963 0)" xlink:href="#w"/><use transform="matrix(.04938272 0 0 .04938272 105.530864 0)" xlink:href="#o"/><use transform="matrix(.04938272 0 0 .04938272 115.407407 0)" xlink:href="#t"/><use transform="matrix(.04938272 0 0 .04938272 125.283951 0)" xlink:href="#w"/><use transform="matrix(.04938272 0 0 .04938272 129.185185 0)" xlink:href="#q"/><use transform="matrix(.04938272 0 0 .04938272 139.061728 0)" xlink:href="#m"/><path d="m133-28c-30 54-138 36-120-49 13-62 24-115 90-117 29-1 46 15 56 35 2-12 6-24 8-34h31l-54 268h-31zm-88-36c-2 27 10 43 35 43 54-1 69-50 69-103 0-29-15-46-42-46-53-1-58 58-62 106" fill="#333" transform="matrix(.04938272 0 0 .04938272 148.938272 0)"/><use transform="matrix(.04938272 0 0 .04938272 158.814815 0)" xlink:href="#j"/><use transform="matrix(.04938272 0 0 .04938272 168.691358 0)" xlink:href="#o"/><use transform="matrix(.04938272 0 0 .04938272 178.567901 0)" xlink:href="#n"/><use transform="matrix(.04938272 0 0 .04938272 188.444444 0)" xlink:href="#l"/><use transform="matrix(.04938272 0 0 .04938272 193.382716 0)" xlink:href="#r"/><use transform="matrix(.04938272 0 0 .04938272 197.283951 0)" xlink:href="#l"/><use transform="matrix(.04938272 0 0 .04938272 202.222222 0)" xlink:href="#x"/></g><path d="m2188.5 745a5 5 0 0 1 5-5h270a5 5 0 0 1 5 5v450a5 5 0 0 1 -5 5h-270a5 5 0 0 1 -5-5z" fill="#fff"/><path d="m2188.5 815v78h280v-78m-280 112v36h280v-36m-280 70v36h280v-36m-280 70v128a5 5 0 0 0 5 5h270a5 5 0 0 0 5-5v-128" fill="#f2f3f5"/><path d="m2188.5 780v-35a5 5 0 0 1 5-5h270a5 5 0 0 1 5 5v35" fill="#c3f7c8"/><path d="m2188.5 745a5 5 0 0 1 5-5h270a5 5 0 0 1 5 5v450a5 5 0 0 1 -5 5h-270a5 5 0 0 1 -5-5zm0 35h280" fill="none" stroke="#333"/><g transform="translate(2209.70005 765.155556)"><use transform="scale(.04938272)" xlink:href="#y"/><use transform="matrix(.04938272 0 0 .04938272 12.790123 0)" xlink:href="#d"/><path d="m144-137c-1-29-70-35-71-2 16 41 103 10 103 80 0 68-97 75-144 50-14-8-23-22-28-39l44-6c3 32 80 36 82 1-15-42-103-11-103-82 0-77 157-79 161-8" fill="#333" transform="matrix(.04938272 0 0 .04938272 23.604938 0)"/><use transform="matrix(.04938272 0 0 .04938272 33.481481 0)" xlink:href="#e"/><use transform="matrix(.04938272 0 0 .04938272 39.358025 0)" xlink:href="#b"/><use transform="matrix(.04938272 0 0 .04938272 50.17284 0)" xlink:href="#z"/><use transform="matrix(.04938272 0 0 .04938272 65.975309 0)" xlink:href="#A"/><use transform="matrix(.04938272 0 0 .04938272 75.851852 0)" xlink:href="#a"/></g><g transform="translate(2204.70005 802.655556)"><use transform="scale(.04938272)" xlink:href="#k"/><use transform="matrix(.04938272 0 0 .04938272 8.888889 0)" xlink:href="#j"/><use transform="matrix(.04938272 0 0 .04938272 18.765432 0)" xlink:href="#s"/><use transform="matrix(.04938272 0 0 .04938272 27.654321 0)" xlink:href="#l"/><use transform="matrix(.04938272 0 0 .04938272 32.592593 0)" xlink:href="#h"/><use transform="matrix(.04938272 0 0 .04938272 42.469136 0)" xlink:href="#p"/><use transform="matrix(.04938272 0 0 .04938272 57.234568 0)" xlink:href="#q"/><use transform="matrix(.04938272 0 0 .04938272 67.111111 0)" xlink:href="#g"/><use transform="matrix(.04938272 0 0 .04938272 72.987654 0)" xlink:href="#m"/><use transform="matrix(.04938272 0 0 .04938272 82.864198 0)" xlink:href="#B"/><use transform="matrix(.04938272 0 0 .04938272 87.802469 0)" xlink:href="#C"/><path d="m-.9 1.23h102.4v1.3h-102.4z" fill="#333"/></g><g transform="translate(2204.70005 837.322222)"><use transform="scale(.04938272)" xlink:href="#k"/><use transform="matrix(.04938272 0 0 .04938272 8.888889 0)" xlink:href="#j"/><use transform="matrix(.04938272 0 0 .04938272 18.765432 0)" xlink:href="#s"/><use transform="matrix(.04938272 0 0 .04938272 27.654321 0)" xlink:href="#l"/><use transform="matrix(.04938272 0 0 .04938272 32.592593 0)" xlink:href="#h"/><use transform="matrix(.04938272 0 0 .04938272 42.469136 0)" xlink:href="#p"/><use transform="matrix(.04938272 0 0 .04938272 57.234568 0)" xlink:href="#q"/><use transform="matrix(.04938272 0 0 .04938272 67.111111 0)" xlink:href="#g"/><use transform="matrix(.04938272 0 0 .04938272 72.987654 0)" xlink:href="#m"/><use transform="matrix(.04938272 0 0 .04938272 82.864198 0)" xlink:href="#n"/><use transform="matrix(.04938272 0 0 .04938272 92.740741 0)" xlink:href="#o"/><use transform="matrix(.04938272 0 0 .04938272 102.617284 0)" xlink:href="#p"/><use transform="matrix(.04938272 0 0 .04938272 117.382716 0)" xlink:href="#q"/></g><g transform="translate(2229.391408 858.655556)"><use transform="scale(.04938272)" xlink:href="#k"/><use transform="matrix(.04938272 0 0 .04938272 8.888889 0)" xlink:href="#j"/><use transform="matrix(.04938272 0 0 .04938272 18.765432 0)" xlink:href="#s"/><use transform="matrix(.04938272 0 0 .04938272 27.654321 0)" xlink:href="#l"/><use transform="matrix(.04938272 0 0 .04938272 32.592593 0)" xlink:href="#h"/><use transform="matrix(.04938272 0 0 .04938272 42.469136 0)" xlink:href="#p"/><use transform="matrix(.04938272 0 0 .04938272 57.234568 0)" xlink:href="#q"/><use transform="matrix(.04938272 0 0 .04938272 67.111111 0)" xlink:href="#g"/><use transform="matrix(.04938272 0 0 .04938272 72.987654 0)" xlink:href="#m"/><use transform="matrix(.04938272 0 0 .04938272 82.864198 0)" xlink:href="#D"/><use transform="matrix(.04938272 0 0 .04938272 87.802469 0)" xlink:href="#n"/><use transform="matrix(.04938272 0 0 .04938272 97.679012 0)" xlink:href="#o"/><use transform="matrix(.04938272 0 0 .04938272 107.555556 0)" xlink:href="#p"/><use transform="matrix(.04938272 0 0 .04938272 122.320988 0)" xlink:href="#q"/></g><g transform="translate(2229.391408 879.988889)"><use transform="scale(.04938272)" xlink:href="#k"/><use transform="matrix(.04938272 0 0 .04938272 8.888889 0)" xlink:href="#j"/><use transform="matrix(.04938272 0 0 .04938272 18.765432 0)" xlink:href="#s"/><use transform="matrix(.04938272 0 0 .04938272 27.654321 0)" xlink:href="#l"/><use transform="matrix(.04938272 0 0 .04938272 32.592593 0)" xlink:href="#h"/><use transform="matrix(.04938272 0 0 .04938272 42.469136 0)" xlink:href="#p"/><use transform="matrix(.04938272 0 0 .04938272 57.234568 0)" xlink:href="#q"/><use transform="matrix(.04938272 0 0 .04938272 67.111111 0)" xlink:href="#g"/><use transform="matrix(.04938272 0 0 .04938272 72.987654 0)" xlink:href="#m"/><use transform="matrix(.04938272 0 0 .04938272 82.864198 0)" xlink:href="#w"/><use transform="matrix(.04938272 0 0 .04938272 86.765432 0)" xlink:href="#n"/><use transform="matrix(.04938272 0 0 .04938272 96.641975 0)" xlink:href="#o"/><use transform="matrix(.04938272 0 0 .04938272 106.518519 0)" xlink:href="#p"/><use transform="matrix(.04938272 0 0 .04938272 121.283951 0)" xlink:href="#q"/></g><g transform="translate(2204.70005 914.655556)"><use transform="scale(.04938272)" xlink:href="#k"/><use transform="matrix(.04938272 0 0 .04938272 8.888889 0)" xlink:href="#j"/><use transform="matrix(.04938272 0 0 .04938272 18.765432 0)" xlink:href="#s"/><use transform="matrix(.04938272 0 0 .04938272 27.654321 0)" xlink:href="#l"/><use transform="matrix(.04938272 0 0 .04938272 32.592593 0)" xlink:href="#h"/><use transform="matrix(.04938272 0 0 .04938272 42.469136 0)" xlink:href="#p"/><use transform="matrix(.04938272 0 0 .04938272 57.234568 0)" xlink:href="#q"/><use transform="matrix(.04938272 0 0 .04938272 67.111111 0)" xlink:href="#g"/><use transform="matrix(.04938272 0 0 .04938272 72.987654 0)" xlink:href="#m"/><use transform="matrix(.04938272 0 0 .04938272 82.864198 0)" xlink:href="#q"/><use transform="matrix(.04938272 0 0 .04938272 92.740741 0)" xlink:href="#p"/><use transform="matrix(.04938272 0 0 .04938272 107.506173 0)" xlink:href="#o"/><use transform="matrix(.04938272 0 0 .04938272 117.382716 0)" xlink:href="#r"/><use transform="matrix(.04938272 0 0 .04938272 121.283951 0)" xlink:href="#w"/></g><g transform="translate(2204.70005 949.655556)"><use transform="scale(.04938272)" xlink:href="#k"/><use transform="matrix(.04938272 0 0 .04938272 8.888889 0)" xlink:href="#j"/><use transform="matrix(.04938272 0 0 .04938272 18.765432 0)" xlink:href="#s"/><use transform="matrix(.04938272 0 0 .04938272 27.654321 0)" xlink:href="#l"/><use transform="matrix(.04938272 0 0 .04938272 32.592593 0)" xlink:href="#h"/><use transform="matrix(.04938272 0 0 .04938272 42.469136 0)" xlink:href="#p"/><use transform="matrix(.04938272 0 0 .04938272 57.234568 0)" xlink:href="#q"/><use transform="matrix(.04938272 0 0 .04938272 67.111111 0)" xlink:href="#g"/><use transform="matrix(.04938272 0 0 .04938272 72.987654 0)" xlink:href="#m"/><use transform="matrix(.04938272 0 0 .04938272 82.864198 0)" xlink:href="#f"/><use transform="matrix(.04938272 0 0 .04938272 92.740741 0)" xlink:href="#o"/><use transform="matrix(.04938272 0 0 .04938272 102.617284 0)" xlink:href="#s"/><use transform="matrix(.04938272 0 0 .04938272 111.506173 0)" xlink:href="#s"/><use transform="matrix(.04938272 0 0 .04938272 120.395062 0)" xlink:href="#E"/><use transform="matrix(.04938272 0 0 .04938272 133.185185 0)" xlink:href="#h"/><use transform="matrix(.04938272 0 0 .04938272 143.061728 0)" xlink:href="#g"/><use transform="matrix(.04938272 0 0 .04938272 148.938272 0)" xlink:href="#i"/></g><g transform="translate(2204.70005 984.655556)"><path d="m54 8c-6 25-1 50 32 44l-5 23c-77 11-58-72-46-129 0-20-11-27-31-28l4-22c93-3 3-173 138-157l-4 23c-85-8-22 124-103 145 41 9 23 65 15 101" fill="#333" transform="scale(.04938272)"/><use transform="matrix(.04938272 0 0 .04938272 5.925926 0)" xlink:href="#k"/><use transform="matrix(.04938272 0 0 .04938272 14.814815 0)" xlink:href="#j"/><use transform="matrix(.04938272 0 0 .04938272 24.691358 0)" xlink:href="#s"/><use transform="matrix(.04938272 0 0 .04938272 33.580247 0)" xlink:href="#l"/><use transform="matrix(.04938272 0 0 .04938272 38.518519 0)" xlink:href="#h"/><use transform="matrix(.04938272 0 0 .04938272 48.395062 0)" xlink:href="#p"/><use transform="matrix(.04938272 0 0 .04938272 63.160494 0)" xlink:href="#q"/><use transform="matrix(.04938272 0 0 .04938272 73.037037 0)" xlink:href="#g"/><use transform="matrix(.04938272 0 0 .04938272 78.91358 0)" xlink:href="#m"/><use transform="matrix(.04938272 0 0 .04938272 88.790123 0)" xlink:href="#f"/><use transform="matrix(.04938272 0 0 .04938272 98.666667 0)" xlink:href="#F"/><use transform="matrix(.04938272 0 0 .04938272 108.54321 0)" xlink:href="#h"/><use transform="matrix(.04938272 0 0 .04938272 118.419753 0)" xlink:href="#n"/><use transform="matrix(.04938272 0 0 .04938272 128.296296 0)" xlink:href="#q"/><path d="m65-194c6-26 0-49-32-44l4-23c79-12 59 72 46 129 1 20 12 27 32 28l-5 22c-92 5-4 173-138 157l4-23c86 9 21-124 103-145-41-8-21-66-14-101" fill="#333" transform="matrix(.04938272 0 0 .04938272 138.17284 0)"/></g><g transform="translate(2204.70005 1019.655556)"><use transform="scale(.04938272)" xlink:href="#k"/><use transform="matrix(.04938272 0 0 .04938272 8.888889 0)" xlink:href="#j"/><use transform="matrix(.04938272 0 0 .04938272 18.765432 0)" xlink:href="#s"/><use transform="matrix(.04938272 0 0 .04938272 27.654321 0)" xlink:href="#l"/><use transform="matrix(.04938272 0 0 .04938272 32.592593 0)" xlink:href="#h"/><use transform="matrix(.04938272 0 0 .04938272 42.469136 0)" xlink:href="#p"/><use transform="matrix(.04938272 0 0 .04938272 57.234568 0)" xlink:href="#q"/><use transform="matrix(.04938272 0 0 .04938272 67.111111 0)" xlink:href="#g"/><use transform="matrix(.04938272 0 0 .04938272 72.987654 0)" xlink:href="#m"/><use transform="matrix(.04938272 0 0 .04938272 82.864198 0)" xlink:href="#i"/><use transform="matrix(.04938272 0 0 .04938272 92.740741 0)" xlink:href="#h"/><use transform="matrix(.04938272 0 0 .04938272 102.617284 0)" xlink:href="#t"/></g><g transform="translate(2204.70005 1054.655556)"><use transform="scale(.04938272)" xlink:href="#k"/><use transform="matrix(.04938272 0 0 .04938272 8.888889 0)" xlink:href="#j"/><use transform="matrix(.04938272 0 0 .04938272 18.765432 0)" xlink:href="#s"/><use transform="matrix(.04938272 0 0 .04938272 27.654321 0)" xlink:href="#l"/><use transform="matrix(.04938272 0 0 .04938272 32.592593 0)" xlink:href="#h"/><use transform="matrix(.04938272 0 0 .04938272 42.469136 0)" xlink:href="#p"/><use transform="matrix(.04938272 0 0 .04938272 57.234568 0)" xlink:href="#q"/><use transform="matrix(.04938272 0 0 .04938272 67.111111 0)" xlink:href="#g"/><use transform="matrix(.04938272 0 0 .04938272 72.987654 0)" xlink:href="#m"/><use transform="matrix(.04938272 0 0 .04938272 82.864198 0)" xlink:href="#o"/><use transform="matrix(.04938272 0 0 .04938272 92.740741 0)" xlink:href="#u"/><use transform="matrix(.04938272 0 0 .04938272 102.617284 0)" xlink:href="#q"/><g fill="#333"><path d="m17-49c1-102 45-165 103-212h30c-58 51-101 116-101 215 0 50 14 89 36 121h-31c-24-32-36-73-37-124" transform="matrix(.04938272 0 0 .04938272 112.493827 0)"/><path d="m98-137c-1 102-44 166-102 212h-31c58-52 102-116 102-215 0-50-15-89-37-121h31c24 32 36 73 37 124" transform="matrix(.04938272 0 0 .04938272 118.37037 0)"/></g></g><g transform="translate(2204.70005 1089.588889)"><use transform="scale(.04938272)" xlink:href="#k"/><use transform="matrix(.04938272 0 0 .04938272 8.888889 0)" xlink:href="#j"/><use transform="matrix(.04938272 0 0 .04938272 18.765432 0)" xlink:href="#s"/><use transform="matrix(.04938272 0 0 .04938272 27.654321 0)" xlink:href="#l"/><use transform="matrix(.04938272 0 0 .04938272 32.592593 0)" xlink:href="#h"/><use transform="matrix(.04938272 0 0 .04938272 42.469136 0)" xlink:href="#p"/><use transform="matrix(.04938272 0 0 .04938272 57.234568 0)" xlink:href="#q"/><use transform="matrix(.04938272 0 0 .04938272 67.111111 0)" xlink:href="#g"/><use transform="matrix(.04938272 0 0 .04938272 72.987654 0)" xlink:href="#m"/><use transform="matrix(.04938272 0 0 .04938272 82.864198 0)" xlink:href="#o"/><use transform="matrix(.04938272 0 0 .04938272 92.740741 0)" xlink:href="#i"/><use transform="matrix(.04938272 0 0 .04938272 102.617284 0)" xlink:href="#i"/><use transform="matrix(.04938272 0 0 .04938272 112.493827 0)" xlink:href="#g"/><use transform="matrix(.04938272 0 0 .04938272 118.37037 0)" xlink:href="#q"/><use transform="matrix(.04938272 0 0 .04938272 128.246914 0)" xlink:href="#s"/><use transform="matrix(.04938272 0 0 .04938272 137.135802 0)" xlink:href="#s"/></g><use transform="translate(2229.391408 1114.122222)" xlink:href="#G"/><use transform="translate(2229.391408 1138.655556)" xlink:href="#H"/><use transform="translate(2229.391408 1163.188889)" xlink:href="#I"/><use transform="translate(2229.391408 1187.722222)" xlink:href="#J"/><path d="m1230 845a5 5 0 0 1 5-5h270a5 5 0 0 1 5 5v212a5 5 0 0 1 -5 5h-270a5 5 0 0 1 -5-5z" fill="#fff"/><path d="m1230 915v78h280v-78m-280 112v30a5 5 0 0 0 5 5h270a5 5 0 0 0 5-5v-30" fill="#f2f3f5"/><path d="m1230 880v-35a5 5 0 0 1 5-5h270a5 5 0 0 1 5 5v35" fill="#c3f7c8"/><path d="m1230 845a5 5 0 0 1 5-5h270a5 5 0 0 1 5 5v212a5 5 0 0 1 -5 5h-270a5 5 0 0 1 -5-5zm0 35h280" fill="none" stroke="#333"/><g transform="translate(1251.2 865.155556)"><path d="m183 0-10-63h-94l-35 63h-51l138-248h61l42 248zm-14-102-15-108c-16 38-36 73-55 108z" fill="#333" transform="scale(.04938272)"/><use transform="matrix(.04938272 0 0 .04938272 12.790123 0)" xlink:href="#c"/><use transform="matrix(.04938272 0 0 .04938272 23.604938 0)" xlink:href="#z"/><use transform="matrix(.04938272 0 0 .04938272 39.407407 0)" xlink:href="#K"/><path d="m151-194c95 0 34 128 28 194h-49l25-134c0-29-45-25-59-9-29 32-27 95-40 143h-50l36-190h47l-4 32c15-20 33-36 66-36" fill="#333" transform="matrix(.04938272 0 0 .04938272 44.345679 0)"/></g><g transform="translate(1246.2 902.655556)"><use transform="scale(.04938272)" xlink:href="#o"/><use transform="matrix(.04938272 0 0 .04938272 9.876543 0)" xlink:href="#i"/><use transform="matrix(.04938272 0 0 .04938272 19.753086 0)" xlink:href="#p"/><use transform="matrix(.04938272 0 0 .04938272 34.518519 0)" xlink:href="#r"/><use transform="matrix(.04938272 0 0 .04938272 38.419753 0)" xlink:href="#n"/><use transform="matrix(.04938272 0 0 .04938272 48.296296 0)" xlink:href="#m"/><use transform="matrix(.04938272 0 0 .04938272 58.17284 0)" xlink:href="#B"/><use transform="matrix(.04938272 0 0 .04938272 63.111111 0)" xlink:href="#C"/><path d="m-.9 1.23h77.7v1.3h-77.7z" fill="#333"/></g><g transform="translate(1246.2 937.322222)"><use transform="scale(.04938272)" xlink:href="#o"/><use transform="matrix(.04938272 0 0 .04938272 9.876543 0)" xlink:href="#i"/><use transform="matrix(.04938272 0 0 .04938272 19.753086 0)" xlink:href="#p"/><use transform="matrix(.04938272 0 0 .04938272 34.518519 0)" xlink:href="#r"/><use transform="matrix(.04938272 0 0 .04938272 38.419753 0)" xlink:href="#n"/><use transform="matrix(.04938272 0 0 .04938272 48.296296 0)" xlink:href="#m"/><use transform="matrix(.04938272 0 0 .04938272 58.17284 0)" xlink:href="#n"/><use transform="matrix(.04938272 0 0 .04938272 68.049383 0)" xlink:href="#o"/><use transform="matrix(.04938272 0 0 .04938272 77.925926 0)" xlink:href="#p"/><use transform="matrix(.04938272 0 0 .04938272 92.691358 0)" xlink:href="#q"/></g><g transform="translate(1270.891358 958.655556)"><use transform="scale(.04938272)" xlink:href="#o"/><use transform="matrix(.04938272 0 0 .04938272 9.876543 0)" xlink:href="#i"/><use transform="matrix(.04938272 0 0 .04938272 19.753086 0)" xlink:href="#p"/><use transform="matrix(.04938272 0 0 .04938272 34.518519 0)" xlink:href="#r"/><use transform="matrix(.04938272 0 0 .04938272 38.419753 0)" xlink:href="#n"/><use transform="matrix(.04938272 0 0 .04938272 48.296296 0)" xlink:href="#m"/><use transform="matrix(.04938272 0 0 .04938272 58.17284 0)" xlink:href="#D"/><use transform="matrix(.04938272 0 0 .04938272 63.111111 0)" xlink:href="#n"/><use transform="matrix(.04938272 0 0 .04938272 72.987654 0)" xlink:href="#o"/><use transform="matrix(.04938272 0 0 .04938272 82.864198 0)" xlink:href="#p"/><use transform="matrix(.04938272 0 0 .04938272 97.62963 0)" xlink:href="#q"/></g><g transform="translate(1270.891358 979.988889)"><use transform="scale(.04938272)" xlink:href="#o"/><use transform="matrix(.04938272 0 0 .04938272 9.876543 0)" xlink:href="#i"/><use transform="matrix(.04938272 0 0 .04938272 19.753086 0)" xlink:href="#p"/><use transform="matrix(.04938272 0 0 .04938272 34.518519 0)" xlink:href="#r"/><use transform="matrix(.04938272 0 0 .04938272 38.419753 0)" xlink:href="#n"/><use transform="matrix(.04938272 0 0 .04938272 48.296296 0)" xlink:href="#m"/><use transform="matrix(.04938272 0 0 .04938272 58.17284 0)" xlink:href="#w"/><use transform="matrix(.04938272 0 0 .04938272 62.074074 0)" xlink:href="#n"/><use transform="matrix(.04938272 0 0 .04938272 71.950617 0)" xlink:href="#o"/><use transform="matrix(.04938272 0 0 .04938272 81.82716 0)" xlink:href="#p"/><use transform="matrix(.04938272 0 0 .04938272 96.592593 0)" xlink:href="#q"/></g><g transform="translate(1246.2 1014.655556)"><use transform="scale(.04938272)" xlink:href="#o"/><use transform="matrix(.04938272 0 0 .04938272 9.876543 0)" xlink:href="#i"/><use transform="matrix(.04938272 0 0 .04938272 19.753086 0)" xlink:href="#p"/><use transform="matrix(.04938272 0 0 .04938272 34.518519 0)" xlink:href="#r"/><use transform="matrix(.04938272 0 0 .04938272 38.419753 0)" xlink:href="#n"/><use transform="matrix(.04938272 0 0 .04938272 48.296296 0)" xlink:href="#m"/><use transform="matrix(.04938272 0 0 .04938272 58.17284 0)" xlink:href="#q"/><use transform="matrix(.04938272 0 0 .04938272 68.049383 0)" xlink:href="#p"/><use transform="matrix(.04938272 0 0 .04938272 82.814815 0)" xlink:href="#o"/><use transform="matrix(.04938272 0 0 .04938272 92.691358 0)" xlink:href="#r"/><use transform="matrix(.04938272 0 0 .04938272 96.592593 0)" xlink:href="#w"/></g><g transform="translate(1246.2 1049.655556)"><use transform="scale(.04938272)" xlink:href="#o"/><use transform="matrix(.04938272 0 0 .04938272 9.876543 0)" xlink:href="#i"/><use transform="matrix(.04938272 0 0 .04938272 19.753086 0)" xlink:href="#p"/><use transform="matrix(.04938272 0 0 .04938272 34.518519 0)" xlink:href="#r"/><use transform="matrix(.04938272 0 0 .04938272 38.419753 0)" xlink:href="#n"/><use transform="matrix(.04938272 0 0 .04938272 48.296296 0)" xlink:href="#m"/><use transform="matrix(.04938272 0 0 .04938272 58.17284 0)" xlink:href="#f"/><use transform="matrix(.04938272 0 0 .04938272 68.049383 0)" xlink:href="#o"/><use transform="matrix(.04938272 0 0 .04938272 77.925926 0)" xlink:href="#s"/><use transform="matrix(.04938272 0 0 .04938272 86.814815 0)" xlink:href="#s"/><use transform="matrix(.04938272 0 0 .04938272 95.703704 0)" xlink:href="#E"/><use transform="matrix(.04938272 0 0 .04938272 108.493827 0)" xlink:href="#h"/><use transform="matrix(.04938272 0 0 .04938272 118.37037 0)" xlink:href="#g"/><use transform="matrix(.04938272 0 0 .04938272 124.246914 0)" xlink:href="#i"/></g><path d="m1363.98 1211.17a9.14 9.14 0 0 1 12.04 0l67.96 59.47a7 7 0 0 1 0 10.53l-67.96 59.47a9.14 9.14 0 0 1 -12.04 0l-67.96-59.47a7 7 0 0 1 0-10.53z" fill="#fff7a1" stroke="#3a414a"/><g transform="translate(1325.609938 1280.203385)"><use transform="scale(.04938272)" xlink:href="#L"/><use transform="matrix(.04938272 0 0 .04938272 14.765432 0)" xlink:href="#M"/><use transform="matrix(.04938272 0 0 .04938272 26.617284 0)" xlink:href="#N"/><use transform="matrix(.04938272 0 0 .04938272 39.407407 0)" xlink:href="#M"/><use transform="matrix(.04938272 0 0 .04938272 51.259259 0)" xlink:href="#O"/><use transform="matrix(.04938272 0 0 .04938272 65.08642 0)" xlink:href="#P"/><use transform="matrix(.04938272 0 0 .04938272 76.938272 0)" xlink:href="#Q"/></g><path d="m1370 1063v144.9" fill="none" stroke="#3a414a"/><path d="m1370.5 1063h-1v-.5h1zm0 145.45-.5-.04-.5.05v-.55h1z" fill="#3a414a" stroke="#3a414a" stroke-width=".05"/><use transform="translate(1378 1205.010776)" xlink:href="#T"/><path d="m1370 1343.9v135.1" fill="none" stroke="#3a414a"/><path d="m1370 1343.4.5-.03v.54h-1v-.53zm.5 136.1h-1v-.5h1z" fill="#3a414a" stroke="#3a414a" stroke-width=".05"/><g transform="translate(1378.005 1369.457873)"><use transform="scale(.04938272)" xlink:href="#U"/><use transform="matrix(.04938272 0 0 .04938272 9.876543 0)" xlink:href="#V"/><use transform="matrix(.04938272 0 0 .04938272 14.814815 0)" xlink:href="#V"/><use transform="matrix(.04938272 0 0 .04938272 19.753086 0)" xlink:href="#W"/></g><path d="m1691.98 1459.2a9.14 9.14 0 0 1 12.04 0l67.96 59.46a7 7 0 0 1 0 10.54l-67.96 59.46a9.14 9.14 0 0 1 -12.04 0l-67.96-59.46a7 7 0 0 1 0-10.54z" fill="#fff7a1" stroke="#3a414a"/><use transform="translate(1652.844506 1528.225469)" xlink:href="#aa"/><path d="m1501 1523.93h119.63" fill="none" stroke="#3a414a"/><path d="m1501 1524.43h-.5v-1h.5zm120.13-.5.04.5h-.55v-1h.55z" fill="#3a414a" stroke="#3a414a" stroke-width=".05"/><use transform="translate(1594.051573 1512.817136)" xlink:href="#ab"/><path d="m1775.37 1523.93h113.63" fill="none" stroke="#3a414a"/><path d="m1775.38 1524.43h-.55l.04-.5-.04-.5h.55zm114.12 0h-.5v-1h.5z" fill="#3a414a" stroke="#3a414a" stroke-width=".05"/><use transform="translate(1773.848947 1512.817136)" xlink:href="#ab"/><path d="m1890 1471.42a5 5 0 0 1 5-5h270a5 5 0 0 1 5 5v100a5 5 0 0 1 -5 5h-270a5 5 0 0 1 -5-5z" fill="#fff"/><path d="m1890 1541.42v30a5 5 0 0 0 5 5h270a5 5 0 0 0 5-5v-30" fill="#f2f3f5"/><path d="m1890 1506.42v-35a5 5 0 0 1 5-5h270a5 5 0 0 1 5 5v35" fill="#c3f7c8"/><path d="m1890 1471.42a5 5 0 0 1 5-5h270a5 5 0 0 1 5 5v100a5 5 0 0 1 -5 5h-270a5 5 0 0 1 -5-5zm0 35h280" fill="none" stroke="#333"/><g transform="translate(1911.2 1491.574875)"><use transform="scale(.04938272)" xlink:href="#y"/><use transform="matrix(.04938272 0 0 .04938272 12.790123 0)" xlink:href="#ac"/><use transform="matrix(.04938272 0 0 .04938272 22.666667 0)" xlink:href="#a"/><use transform="matrix(.04938272 0 0 .04938272 29.580247 0)" xlink:href="#e"/></g><g transform="translate(1906.2 1529.074875)"><use transform="scale(.04938272)" xlink:href="#k"/><use transform="matrix(.04938272 0 0 .04938272 8.888889 0)" xlink:href="#o"/><use transform="matrix(.04938272 0 0 .04938272 18.765432 0)" xlink:href="#g"/><use transform="matrix(.04938272 0 0 .04938272 24.641975 0)" xlink:href="#l"/><use transform="matrix(.04938272 0 0 .04938272 29.580247 0)" xlink:href="#m"/><use transform="matrix(.04938272 0 0 .04938272 39.45679 0)" xlink:href="#B"/><use transform="matrix(.04938272 0 0 .04938272 44.395062 0)" xlink:href="#C"/><path d="m-.9 1.23h58.97v1.3h-58.97z" fill="#333"/></g><g transform="translate(1906.2 1564.074875)"><use transform="scale(.04938272)" xlink:href="#k"/><use transform="matrix(.04938272 0 0 .04938272 8.888889 0)" xlink:href="#o"/><use transform="matrix(.04938272 0 0 .04938272 18.765432 0)" xlink:href="#g"/><use transform="matrix(.04938272 0 0 .04938272 24.641975 0)" xlink:href="#l"/><use transform="matrix(.04938272 0 0 .04938272 29.580247 0)" xlink:href="#m"/><use transform="matrix(.04938272 0 0 .04938272 39.45679 0)" xlink:href="#o"/><use transform="matrix(.04938272 0 0 .04938272 49.333333 0)" xlink:href="#p"/><use transform="matrix(.04938272 0 0 .04938272 64.098765 0)" xlink:href="#h"/><use transform="matrix(.04938272 0 0 .04938272 73.975309 0)" xlink:href="#j"/><use transform="matrix(.04938272 0 0 .04938272 83.851852 0)" xlink:href="#n"/><use transform="matrix(.04938272 0 0 .04938272 93.728395 0)" xlink:href="#l"/></g><path d="m2023.73 1285.27a9.14 9.14 0 0 1 12.04 0l67.96 59.46a7 7 0 0 1 0 10.54l-67.96 59.46a9.14 9.14 0 0 1 -12.04 0l-67.96-59.46a7 7 0 0 1 0-10.54z" fill="#fff7a1" stroke="#3a414a"/><g transform="translate(2011.508091 1354.297222)"><path d="m197 0v-115h-134v115h-33v-248h33v105h134v-105h34v248z" fill="#3a414a" transform="scale(.04938272)"/><use transform="matrix(.04938272 0 0 .04938272 12.790123 0)" xlink:href="#M"/><use transform="matrix(.04938272 0 0 .04938272 24.641975 0)" xlink:href="#Q"/></g><path d="m2029.75 1282v-30a12 12 0 0 1 12-12h222.3a12 12 0 0 0 12-12v-27" fill="none" stroke="#3a414a"/><path d="m2030.25 1282.54-.5-.03-.5.04v-.55h1zm246.3-81.54h-1v-.5h1z" fill="#3a414a" stroke="#3a414a" stroke-width=".05"/><use transform="translate(1991.750004 1278.984302)" xlink:href="#T"/><path d="m2366.67 1438v-237" fill="none" stroke="#3a414a"/><path d="m2367.17 1438.53-.38-.02-.63.05v-.55h1zm0-237.53h-1v-.5h1z" fill="#3a414a" stroke="#3a414a" stroke-width=".05"/><g transform="translate(2374.675278 1421.551752)"><use transform="scale(.04938272)" xlink:href="#U"/><use transform="matrix(.04938272 0 0 .04938272 9.876543 0)" xlink:href="#V"/><use transform="matrix(.04938272 0 0 .04938272 14.814815 0)" xlink:href="#V"/><use transform="matrix(.04938272 0 0 .04938272 19.753086 0)" xlink:href="#U"/></g><g stroke="#3a414a"><path d="m2368.67 1583.02v244.98a14 14 0 0 1 -14 14h-182.17" fill="none" stroke-width="2"/><path d="m2364.67 1583.02v244.98a10 10 0 0 1 -10 10h-182.17" fill="none" stroke-width="2"/><path d="m2369.67 1583.04h-2v-1.08l.5-.03 1.36-.3.14-.05zm-5.61-1.41 1.35.3.27.02v1.1h-2v-1.57zm-191.53 261.37h-1.03v-2h1.03zm0-4h-1.03v-2h1.03z" fill="#3a414a" stroke-width=".05"/></g><use transform="translate(2374.675278 1607.182933)" xlink:href="#ab"/><path d="m2029.75 1418v23.58a.13.13 0 0 0 .13.13.13.13 0 0 1 .12.13v23.6" fill="none" stroke="#3a414a"/><path d="m2029.75 1417.5.5-.04v.55h-1v-.54zm.75 48.42h-1v-.5h1z" fill="#3a414a" stroke="#3a414a" stroke-width=".05"/><use transform="translate(1991.750004 1436.221346)" xlink:href="#T"/><path d="m2570.6 1448a8 8 0 0 1 8-8h224a8 8 0 0 1 8 8v124.5a8 8 0 0 1 -8 8h-224a8 8 0 0 1 -8-8z" fill="#fff" stroke="#3a414a"/><g transform="translate(2586.787063 1466.50288)"><use transform="scale(.04938272)" xlink:href="#ad"/><use transform="matrix(.04938272 0 0 .04938272 9.876543 0)" xlink:href="#ae"/><use transform="matrix(.04938272 0 0 .04938272 19.753086 0)" xlink:href="#af"/><use transform="matrix(.04938272 0 0 .04938272 28.641975 0)" xlink:href="#ag"/><use transform="matrix(.04938272 0 0 .04938272 43.407407 0)" xlink:href="#ah"/><use transform="matrix(.04938272 0 0 .04938272 53.283951 0)" xlink:href="#ai"/><use transform="matrix(.04938272 0 0 .04938272 63.160494 0)" xlink:href="#aj"/><use transform="matrix(.04938272 0 0 .04938272 68.098765 0)" xlink:href="#ak"/><use transform="matrix(.04938272 0 0 .04938272 77.975309 0)" xlink:href="#al"/><use transform="matrix(.04938272 0 0 .04938272 87.851852 0)" xlink:href="#ah"/><use transform="matrix(.04938272 0 0 .04938272 97.728395 0)" xlink:href="#aj"/><use transform="matrix(.04938272 0 0 .04938272 102.666667 0)" xlink:href="#ae"/><use transform="matrix(.04938272 0 0 .04938272 112.54321 0)" xlink:href="#am"/><path d="m6 0 50-261h32l-51 261z" fill="#3a414a" transform="matrix(.04938272 0 0 .04938272 116.444444 0)"/><use transform="matrix(.04938272 0 0 .04938272 120.345679 0)" xlink:href="#an"/></g><g transform="translate(2606.540149 1491.036214)"><use transform="scale(.04938272)" xlink:href="#ad"/><use transform="matrix(.04938272 0 0 .04938272 9.876543 0)" xlink:href="#ae"/><use transform="matrix(.04938272 0 0 .04938272 19.753086 0)" xlink:href="#af"/><use transform="matrix(.04938272 0 0 .04938272 28.641975 0)" xlink:href="#ag"/><use transform="matrix(.04938272 0 0 .04938272 43.407407 0)" xlink:href="#ah"/><use transform="matrix(.04938272 0 0 .04938272 53.283951 0)" xlink:href="#ai"/><use transform="matrix(.04938272 0 0 .04938272 63.160494 0)" xlink:href="#aj"/><use transform="matrix(.04938272 0 0 .04938272 68.098765 0)" xlink:href="#ak"/><g fill="#3a414a"><path d="m14 0 48-248h34l-48 248z" transform="matrix(.04938272 0 0 .04938272 77.975309 0)"/><path d="m248-139c-1 125-104 148-237 139l48-248c105-6 190 8 189 109zm-34 0c1-70-52-87-126-82l-38 194c98 7 163-21 164-112" transform="matrix(.04938272 0 0 .04938272 82.91358 0)"/></g></g><g transform="translate(2606.540149 1515.569547)"><use transform="scale(.04938272)" xlink:href="#ad"/><use transform="matrix(.04938272 0 0 .04938272 9.876543 0)" xlink:href="#ae"/><use transform="matrix(.04938272 0 0 .04938272 19.753086 0)" xlink:href="#af"/><use transform="matrix(.04938272 0 0 .04938272 28.641975 0)" xlink:href="#ag"/><use transform="matrix(.04938272 0 0 .04938272 43.407407 0)" xlink:href="#ah"/><use transform="matrix(.04938272 0 0 .04938272 53.283951 0)" xlink:href="#ai"/><use transform="matrix(.04938272 0 0 .04938272 63.160494 0)" xlink:href="#aj"/><use transform="matrix(.04938272 0 0 .04938272 68.098765 0)" xlink:href="#ak"/><use transform="matrix(.04938272 0 0 .04938272 77.975309 0)" xlink:href="#ae"/><use transform="matrix(.04938272 0 0 .04938272 87.851852 0)" xlink:href="#ag"/><use transform="matrix(.04938272 0 0 .04938272 102.617284 0)" xlink:href="#ao"/><use transform="matrix(.04938272 0 0 .04938272 112.493827 0)" xlink:href="#ap"/><use transform="matrix(.04938272 0 0 .04938272 122.37037 0)" xlink:href="#ai"/><use transform="matrix(.04938272 0 0 .04938272 132.246914 0)" xlink:href="#aj"/></g><g transform="translate(2606.540149 1540.10288)"><use transform="scale(.04938272)" xlink:href="#ad"/><use transform="matrix(.04938272 0 0 .04938272 9.876543 0)" xlink:href="#ae"/><use transform="matrix(.04938272 0 0 .04938272 19.753086 0)" xlink:href="#af"/><use transform="matrix(.04938272 0 0 .04938272 28.641975 0)" xlink:href="#ag"/><use transform="matrix(.04938272 0 0 .04938272 43.407407 0)" xlink:href="#ah"/><use transform="matrix(.04938272 0 0 .04938272 53.283951 0)" xlink:href="#ai"/><use transform="matrix(.04938272 0 0 .04938272 63.160494 0)" xlink:href="#aj"/><use transform="matrix(.04938272 0 0 .04938272 68.098765 0)" xlink:href="#ak"/><use transform="matrix(.04938272 0 0 .04938272 77.975309 0)" xlink:href="#al"/><use transform="matrix(.04938272 0 0 .04938272 87.851852 0)" xlink:href="#ae"/><use transform="matrix(.04938272 0 0 .04938272 97.728395 0)" xlink:href="#aj"/><use transform="matrix(.04938272 0 0 .04938272 102.666667 0)" xlink:href="#ah"/></g><g transform="translate(2606.540149 1564.636214)"><use transform="scale(.04938272)" xlink:href="#ad"/><use transform="matrix(.04938272 0 0 .04938272 9.876543 0)" xlink:href="#ae"/><use transform="matrix(.04938272 0 0 .04938272 19.753086 0)" xlink:href="#af"/><use transform="matrix(.04938272 0 0 .04938272 28.641975 0)" xlink:href="#ag"/><use transform="matrix(.04938272 0 0 .04938272 43.407407 0)" xlink:href="#ah"/><use transform="matrix(.04938272 0 0 .04938272 53.283951 0)" xlink:href="#ai"/><use transform="matrix(.04938272 0 0 .04938272 63.160494 0)" xlink:href="#aj"/><use transform="matrix(.04938272 0 0 .04938272 68.098765 0)" xlink:href="#ak"/><use transform="matrix(.04938272 0 0 .04938272 77.975309 0)" xlink:href="#an"/><use transform="matrix(.04938272 0 0 .04938272 86.864198 0)" xlink:href="#aj"/><use transform="matrix(.04938272 0 0 .04938272 91.802469 0)" xlink:href="#ae"/><use transform="matrix(.04938272 0 0 .04938272 101.679012 0)" xlink:href="#aj"/><use transform="matrix(.04938272 0 0 .04938272 106.617284 0)" xlink:href="#ap"/><use transform="matrix(.04938272 0 0 .04938272 116.493827 0)" xlink:href="#an"/></g><path d="m2449.04 1510.27h1.9m3.75 0h3.76m3.76 0h3.77m3.76 0h3.76m3.77 0h3.75m3.77 0h3.77m3.75 0h3.77m3.77 0h3.75m3.77 0h1.88v-.02h1.92m3.76 0h3.76m3.77 0h3.78m3.76 0h3.77m3.77 0h3.77m3.77 0h3.77m3.77 0h3.77m3.77 0h3.77m3.76 0h1.9" fill="none" stroke="#3a414a"/><path d="m2449.05 1510.77h-.55l.04-.5-.04-.5h.55zm121.05-.03h-.53v-1h.52z" fill="#3a414a" stroke="#3a414a" stroke-width=".05"/><path d="m1618 1368a8 8 0 0 1 8-8h144a8 8 0 0 1 8 8v33a8 8 0 0 1 -8 8h-144a8 8 0 0 1 -8-8z" fill="#fff" stroke="#3a414a"/><use transform="translate(1632.37037 1390.155556)" xlink:href="#aq"/><path d="m1698 1455.93v-5.1m0-5.1v-10.2m0-5.1v-10.2m0-5.12v-5.1" fill="none" stroke="#3a414a" stroke-linejoin="round"/><path d="m1698.5 1456.47-.5-.04-.5.04v-.55h1zm0-46.44h-1v-.52h1z" fill="#3a414a" stroke="#3a414a" stroke-width=".05"/><path d="m2333.98 2035.86a9.14 9.14 0 0 1 12.04 0l67.96 59.46a7 7 0 0 1 0 10.54l-67.96 59.46a9.14 9.14 0 0 1 -12.04 0l-67.96-59.46a7 7 0 0 1 0-10.54z" fill="#fff7a1" stroke="#3a414a"/><g transform="translate(2298.276605 2104.886498)"><use transform="scale(.04938272)" xlink:href="#Z"/><use transform="matrix(.04938272 0 0 .04938272 4.938272 0)" xlink:href="#N"/><use transform="matrix(.04938272 0 0 .04938272 17.728395 0)" xlink:href="#Z"/><use transform="matrix(.04938272 0 0 .04938272 22.666667 0)" xlink:href="#Y"/><use transform="matrix(.04938272 0 0 .04938272 33.481481 0)" xlink:href="#Z"/><use transform="matrix(.04938272 0 0 .04938272 38.419753 0)" xlink:href="#M"/><use transform="matrix(.04938272 0 0 .04938272 48.938272 0)" xlink:href="#Y"/><use transform="matrix(.04938272 0 0 .04938272 59.753086 0)" xlink:href="#P"/><use transform="matrix(.04938272 0 0 .04938272 71.604938 0)" xlink:href="#Q"/></g><path d="m2025.5 2001v87.6a12 12 0 0 0 12 12h220.25" fill="none" stroke="#3a414a"/><path d="m2026 2001h-1v-.5h1zm232.25 99.6.05.5h-.56v-1h.56z" fill="#3a414a" stroke="#3a414a" stroke-width=".05"/><g transform="translate(2229.64117 2118.989275)"><use transform="scale(.05)" xlink:href="#ar"/><use transform="matrix(.05 0 0 .05 10 0)" xlink:href="#as"/><use transform="matrix(.05 0 0 .05 15 0)" xlink:href="#as"/><use transform="matrix(.05 0 0 .05 20 0)" xlink:href="#ar"/></g><path d="m2544 2101.6h-121.75m121.75-2h-121.75" fill="none" stroke="#3a414a"/><path d="m2544.5 2102.1h-.5v-1h.5zm0-2h-.5v-1h.5zm-122.24 2h-.68l.06-.24.06-.77h.56zm0-2h-.56l-.06-.78-.06-.23h.68z" fill="#3a414a" stroke="#3a414a" stroke-width=".05"/><g transform="translate(2420.24664 2118.989275)"><use transform="scale(.05)" xlink:href="#ar"/><use transform="matrix(.05 0 0 .05 10 0)" xlink:href="#as"/><use transform="matrix(.05 0 0 .05 15 0)" xlink:href="#as"/><use transform="matrix(.05 0 0 .05 20 0)" xlink:href="#at"/></g><path d="m1501 1737.33h126.4" fill="none" stroke="#3a414a"/><path d="m1501 1737.83h-.5v-1h.5zm126.88-.83.07.83h-.56v-1h.5z" fill="#3a414a" stroke="#3a414a" stroke-width=".05"/><use transform="translate(1601.072173 1726.132768)" xlink:href="#av"/><path d="m2360.78 1441.27a9.14 9.14 0 0 1 12.04 0l72.83 63.73a7 7 0 0 1 0 10.53l-72.83 63.73a9.14 9.14 0 0 1 -12.05 0l-72.83-63.73a7 7 0 0 1 0-10.53z" fill="none" stroke="#3a414a"/><path d="m2360.65 1445.28a9.14 9.14 0 0 1 12.04 0l67.95 59.46a7 7 0 0 1 0 10.54l-67.96 59.46a9.14 9.14 0 0 1 -12.05 0l-67.96-59.46a7 7 0 0 1 0-10.54z" fill="#fff7a1" stroke="#3a414a"/><g transform="translate(2325.119722 1514.310314)"><path d="m30-248c87 1 191-15 191 75 0 78-77 80-158 76v97h-33zm33 125c57 0 124 11 124-50 0-59-68-47-124-48z" fill="#3a414a" transform="scale(.04938272)"/><use transform="matrix(.04938272 0 0 .04938272 10.518519 0)" xlink:href="#M"/><path d="m137-103v103h-34v-103l-95-145h37l75 118 75-118h37" fill="#3a414a" transform="matrix(.04938272 0 0 .04938272 21.037037 0)"/><use transform="matrix(.04938272 0 0 .04938272 32.888889 0)" xlink:href="#L"/><use transform="matrix(.04938272 0 0 .04938272 47.654321 0)" xlink:href="#P"/><use transform="matrix(.04938272 0 0 .04938272 59.506173 0)" xlink:href="#N"/><use transform="matrix(.04938272 0 0 .04938272 72.296296 0)" xlink:href="#Y"/></g><path d="m1698.73 1672.28a9.14 9.14 0 0 1 12.04 0l67.96 59.46a7 7 0 0 1 0 10.54l-67.96 59.46a9.14 9.14 0 0 1 -12.04 0l-67.96-59.46a7 7 0 0 1 0-10.54z" fill="#fff7a1" stroke="#3a414a"/><use transform="translate(1659.594511 1741.310314)" xlink:href="#aa"/><path d="m1782.1 1737.27h48.27a.18.18 0 0 0 .18-.18.18.18 0 0 1 .18-.2h48.27" fill="none" stroke="#3a414a"/><path d="m1782.1 1737.77h-.54l.06-.76-.02-.23h.5zm97.4-.37h-.5v-1h.5z" fill="#3a414a" stroke="#3a414a" stroke-width=".05"/><use transform="translate(1780.753053 1726.065627)" xlink:href="#av"/><path d="m1704.75 1805v4.5m0 4.5v9m0 4.5v9m0 4.5v9m0 4.5v4.5" fill="none" stroke="#3a414a" stroke-linejoin="round"/><path d="m1704.75 1804.5.5-.03v.55h-1v-.55zm.5 55h-1v-.5h1z" fill="#3a414a" stroke="#3a414a" stroke-width=".05"/><path d="m1624.75 1868a8 8 0 0 1 8-8h144a8 8 0 0 1 8 8v33a8 8 0 0 1 -8 8h-144a8 8 0 0 1 -8-8z" fill="#fff" stroke="#3a414a"/><use transform="translate(1639.120375 1890.155556)" xlink:href="#aq"/><path d="m2333.98 2031.6a9.14 9.14 0 0 1 12.04 0l72.83 63.72a7 7 0 0 1 0 10.54l-72.83 63.73a9.14 9.14 0 0 1 -12.04 0l-72.83-63.74a7 7 0 0 1 0-10.54z" fill="none" stroke="#3a414a"/><path d="m2550.6 1965a5 5 0 0 1 5-5h270a5 5 0 0 1 5 5v341a5 5 0 0 1 -5 5h-270a5 5 0 0 1 -5-5z" fill="#fff"/><path d="m2550.6 2035v109h280v-109m-280 143v128a5 5 0 0 0 5 5h270a5 5 0 0 0 5-5v-128" fill="#f2f3f5"/><path d="m2550.6 2000v-35a5 5 0 0 1 5-5h270a5 5 0 0 1 5 5v35" fill="#c3f7c8"/><path d="m2550.6 1965a5 5 0 0 1 5-5h270a5 5 0 0 1 5 5v341a5 5 0 0 1 -5 5h-270a5 5 0 0 1 -5-5zm0 35h280" fill="none" stroke="#333"/><g transform="translate(2571.787063 1985.155556)"><path d="m250-142c-3 89-53 142-142 142h-102l48-248c105-5 200 3 196 106zm-49 2c1-57-42-72-103-68l-32 168c84 6 135-22 135-100" fill="#333" transform="scale(.04938272)"/><use transform="matrix(.04938272 0 0 .04938272 12.790123 0)" xlink:href="#A"/><path d="m6 0 51-261h49l-51 261z" fill="#333" transform="matrix(.04938272 0 0 .04938272 22.666667 0)"/><use transform="matrix(.04938272 0 0 .04938272 27.604938 0)" xlink:href="#K"/><path d="m109 0h-59l-31-190h51l16 153 77-153h54" fill="#333" transform="matrix(.04938272 0 0 .04938272 32.54321 0)"/><use transform="matrix(.04938272 0 0 .04938272 42.419753 0)" xlink:href="#A"/><use transform="matrix(.04938272 0 0 .04938272 52.296296 0)" xlink:href="#a"/><use transform="matrix(.04938272 0 0 .04938272 59.209877 0)" xlink:href="#aw"/></g><g transform="translate(2566.787063 2022.655556)"><use transform="scale(.04938272)" xlink:href="#i"/><use transform="matrix(.04938272 0 0 .04938272 9.876543 0)" xlink:href="#q"/><use transform="matrix(.04938272 0 0 .04938272 19.753086 0)" xlink:href="#w"/><use transform="matrix(.04938272 0 0 .04938272 23.654321 0)" xlink:href="#r"/><use transform="matrix(.04938272 0 0 .04938272 27.555556 0)" xlink:href="#v"/><use transform="matrix(.04938272 0 0 .04938272 36.444444 0)" xlink:href="#q"/><use transform="matrix(.04938272 0 0 .04938272 46.320988 0)" xlink:href="#g"/><use transform="matrix(.04938272 0 0 .04938272 52.197531 0)" xlink:href="#x"/><use transform="matrix(.04938272 0 0 .04938272 61.08642 0)" xlink:href="#m"/><use transform="matrix(.04938272 0 0 .04938272 70.962963 0)" xlink:href="#B"/><use transform="matrix(.04938272 0 0 .04938272 75.901235 0)" xlink:href="#C"/><path d="m-.9 1.23h90.5v1.3h-90.5z" fill="#333"/></g><g transform="translate(2566.787063 2057.355556)"><use transform="scale(.04938272)" xlink:href="#i"/><use transform="matrix(.04938272 0 0 .04938272 9.876543 0)" xlink:href="#q"/><use transform="matrix(.04938272 0 0 .04938272 19.753086 0)" xlink:href="#w"/><use transform="matrix(.04938272 0 0 .04938272 23.654321 0)" xlink:href="#r"/><use transform="matrix(.04938272 0 0 .04938272 27.555556 0)" xlink:href="#v"/><use transform="matrix(.04938272 0 0 .04938272 36.444444 0)" xlink:href="#q"/><use transform="matrix(.04938272 0 0 .04938272 46.320988 0)" xlink:href="#g"/><use transform="matrix(.04938272 0 0 .04938272 52.197531 0)" xlink:href="#x"/><use transform="matrix(.04938272 0 0 .04938272 61.08642 0)" xlink:href="#m"/><use transform="matrix(.04938272 0 0 .04938272 70.962963 0)" xlink:href="#i"/><use transform="matrix(.04938272 0 0 .04938272 80.839506 0)" xlink:href="#o"/><use transform="matrix(.04938272 0 0 .04938272 90.716049 0)" xlink:href="#l"/><use transform="matrix(.04938272 0 0 .04938272 95.654321 0)" xlink:href="#q"/></g><g transform="translate(2591.478421 2081.888889)"><use transform="scale(.04938272)" xlink:href="#i"/><use transform="matrix(.04938272 0 0 .04938272 9.876543 0)" xlink:href="#q"/><use transform="matrix(.04938272 0 0 .04938272 19.753086 0)" xlink:href="#w"/><use transform="matrix(.04938272 0 0 .04938272 23.654321 0)" xlink:href="#r"/><use transform="matrix(.04938272 0 0 .04938272 27.555556 0)" xlink:href="#v"/><use transform="matrix(.04938272 0 0 .04938272 36.444444 0)" xlink:href="#q"/><use transform="matrix(.04938272 0 0 .04938272 46.320988 0)" xlink:href="#g"/><use transform="matrix(.04938272 0 0 .04938272 52.197531 0)" xlink:href="#x"/><use transform="matrix(.04938272 0 0 .04938272 61.08642 0)" xlink:href="#m"/><use transform="matrix(.04938272 0 0 .04938272 70.962963 0)" xlink:href="#i"/><use transform="matrix(.04938272 0 0 .04938272 80.839506 0)" xlink:href="#o"/><use transform="matrix(.04938272 0 0 .04938272 90.716049 0)" xlink:href="#x"/></g><g transform="translate(2591.478421 2106.422222)"><use transform="scale(.04938272)" xlink:href="#i"/><use transform="matrix(.04938272 0 0 .04938272 9.876543 0)" xlink:href="#q"/><use transform="matrix(.04938272 0 0 .04938272 19.753086 0)" xlink:href="#w"/><use transform="matrix(.04938272 0 0 .04938272 23.654321 0)" xlink:href="#r"/><use transform="matrix(.04938272 0 0 .04938272 27.555556 0)" xlink:href="#v"/><use transform="matrix(.04938272 0 0 .04938272 36.444444 0)" xlink:href="#q"/><use transform="matrix(.04938272 0 0 .04938272 46.320988 0)" xlink:href="#g"/><use transform="matrix(.04938272 0 0 .04938272 52.197531 0)" xlink:href="#x"/><use transform="matrix(.04938272 0 0 .04938272 61.08642 0)" xlink:href="#m"/><use transform="matrix(.04938272 0 0 .04938272 70.962963 0)" xlink:href="#p"/><use transform="matrix(.04938272 0 0 .04938272 85.728395 0)" xlink:href="#h"/><use transform="matrix(.04938272 0 0 .04938272 95.604938 0)" xlink:href="#n"/><use transform="matrix(.04938272 0 0 .04938272 105.481481 0)" xlink:href="#l"/><use transform="matrix(.04938272 0 0 .04938272 110.419753 0)" xlink:href="#F"/></g><g transform="translate(2591.478421 2130.955556)"><use transform="scale(.04938272)" xlink:href="#i"/><use transform="matrix(.04938272 0 0 .04938272 9.876543 0)" xlink:href="#q"/><use transform="matrix(.04938272 0 0 .04938272 19.753086 0)" xlink:href="#w"/><use transform="matrix(.04938272 0 0 .04938272 23.654321 0)" xlink:href="#r"/><use transform="matrix(.04938272 0 0 .04938272 27.555556 0)" xlink:href="#v"/><use transform="matrix(.04938272 0 0 .04938272 36.444444 0)" xlink:href="#q"/><use transform="matrix(.04938272 0 0 .04938272 46.320988 0)" xlink:href="#g"/><use transform="matrix(.04938272 0 0 .04938272 52.197531 0)" xlink:href="#x"/><use transform="matrix(.04938272 0 0 .04938272 61.08642 0)" xlink:href="#m"/><use transform="matrix(.04938272 0 0 .04938272 70.962963 0)" xlink:href="#x"/><use transform="matrix(.04938272 0 0 .04938272 79.851852 0)" xlink:href="#q"/><use transform="matrix(.04938272 0 0 .04938272 89.728395 0)" xlink:href="#o"/><use transform="matrix(.04938272 0 0 .04938272 99.604938 0)" xlink:href="#g"/></g><g transform="translate(2566.787063 2165.655556)"><use transform="scale(.04938272)" xlink:href="#i"/><use transform="matrix(.04938272 0 0 .04938272 9.876543 0)" xlink:href="#q"/><use transform="matrix(.04938272 0 0 .04938272 19.753086 0)" xlink:href="#w"/><use transform="matrix(.04938272 0 0 .04938272 23.654321 0)" xlink:href="#r"/><use transform="matrix(.04938272 0 0 .04938272 27.555556 0)" xlink:href="#v"/><use transform="matrix(.04938272 0 0 .04938272 36.444444 0)" xlink:href="#q"/><use transform="matrix(.04938272 0 0 .04938272 46.320988 0)" xlink:href="#g"/><use transform="matrix(.04938272 0 0 .04938272 52.197531 0)" xlink:href="#x"/><use transform="matrix(.04938272 0 0 .04938272 61.08642 0)" xlink:href="#m"/><use transform="matrix(.04938272 0 0 .04938272 70.962963 0)" xlink:href="#s"/><use transform="matrix(.04938272 0 0 .04938272 79.851852 0)" xlink:href="#l"/><use transform="matrix(.04938272 0 0 .04938272 84.790123 0)" xlink:href="#o"/><use transform="matrix(.04938272 0 0 .04938272 94.666667 0)" xlink:href="#l"/><use transform="matrix(.04938272 0 0 .04938272 99.604938 0)" xlink:href="#j"/><use transform="matrix(.04938272 0 0 .04938272 109.481481 0)" xlink:href="#s"/></g><g transform="translate(2566.787063 2200.588889)"><use transform="scale(.04938272)" xlink:href="#i"/><use transform="matrix(.04938272 0 0 .04938272 9.876543 0)" xlink:href="#q"/><use transform="matrix(.04938272 0 0 .04938272 19.753086 0)" xlink:href="#w"/><use transform="matrix(.04938272 0 0 .04938272 23.654321 0)" xlink:href="#r"/><use transform="matrix(.04938272 0 0 .04938272 27.555556 0)" xlink:href="#v"/><use transform="matrix(.04938272 0 0 .04938272 36.444444 0)" xlink:href="#q"/><use transform="matrix(.04938272 0 0 .04938272 46.320988 0)" xlink:href="#g"/><use transform="matrix(.04938272 0 0 .04938272 52.197531 0)" xlink:href="#x"/><use transform="matrix(.04938272 0 0 .04938272 61.08642 0)" xlink:href="#m"/><use transform="matrix(.04938272 0 0 .04938272 70.962963 0)" xlink:href="#o"/><use transform="matrix(.04938272 0 0 .04938272 80.839506 0)" xlink:href="#i"/><use transform="matrix(.04938272 0 0 .04938272 90.716049 0)" xlink:href="#i"/><use transform="matrix(.04938272 0 0 .04938272 100.592593 0)" xlink:href="#g"/><use transform="matrix(.04938272 0 0 .04938272 106.469136 0)" xlink:href="#q"/><use transform="matrix(.04938272 0 0 .04938272 116.345679 0)" xlink:href="#s"/><use transform="matrix(.04938272 0 0 .04938272 125.234568 0)" xlink:href="#s"/></g><g transform="translate(2591.597063 2225.122222)"><use transform="scale(.04938272)" xlink:href="#F"/><use transform="matrix(.04938272 0 0 .04938272 9.876543 0)" xlink:href="#h"/><use transform="matrix(.04938272 0 0 .04938272 19.753086 0)" xlink:href="#j"/><use transform="matrix(.04938272 0 0 .04938272 29.62963 0)" xlink:href="#s"/><use transform="matrix(.04938272 0 0 .04938272 38.518519 0)" xlink:href="#q"/><use transform="matrix(.04938272 0 0 .04938272 48.395062 0)" xlink:href="#m"/><use transform="matrix(.04938272 0 0 .04938272 58.271605 0)" xlink:href="#n"/><use transform="matrix(.04938272 0 0 .04938272 68.148148 0)" xlink:href="#h"/></g><g transform="translate(2591.597063 2249.655556)"><use transform="scale(.04938272)" xlink:href="#k"/><use transform="matrix(.04938272 0 0 .04938272 8.888889 0)" xlink:href="#r"/><use transform="matrix(.04938272 0 0 .04938272 12.790123 0)" xlink:href="#l"/><use transform="matrix(.04938272 0 0 .04938272 17.728395 0)" xlink:href="#x"/></g><g transform="translate(2591.597063 2274.188889)"><use transform="scale(.04938272)" xlink:href="#s"/><use transform="matrix(.04938272 0 0 .04938272 8.888889 0)" xlink:href="#l"/><use transform="matrix(.04938272 0 0 .04938272 13.82716 0)" xlink:href="#o"/><use transform="matrix(.04938272 0 0 .04938272 23.703704 0)" xlink:href="#l"/><use transform="matrix(.04938272 0 0 .04938272 28.641975 0)" xlink:href="#q"/></g><g transform="translate(2591.597063 2298.722222)"><use transform="scale(.04938272)" xlink:href="#f"/><use transform="matrix(.04938272 0 0 .04938272 9.876543 0)" xlink:href="#r"/><use transform="matrix(.04938272 0 0 .04938272 13.777778 0)" xlink:href="#n"/><use transform="matrix(.04938272 0 0 .04938272 23.654321 0)" xlink:href="#k"/><use transform="matrix(.04938272 0 0 .04938272 32.54321 0)" xlink:href="#h"/><use transform="matrix(.04938272 0 0 .04938272 42.419753 0)" xlink:href="#i"/><use transform="matrix(.04938272 0 0 .04938272 52.296296 0)" xlink:href="#q"/></g><path d="m2545 1961a8 8 0 0 1 8-8h275a8 8 0 0 1 8 8v350a8 8 0 0 1 -8 8h-275a8 8 0 0 1 -8-8zm-665-273a8 8 0 0 1 8-8h275a8 8 0 0 1 8 8v304a8 8 0 0 1 -8 8h-275a8 8 0 0 1 -8-8z" fill="none" stroke="#3a414a"/><path d="m1886 1689a5 5 0 0 1 5-5h270a5 5 0 0 1 5 5v303a5 5 0 0 1 -5 5h-270a5 5 0 0 1 -5-5z" fill="#fff"/><path d="m1886 1759v36h280v-36m-280 70v36h280v-36" fill="#f2f3f5"/><path d="m1886 1724v-35a5 5 0 0 1 5-5h270a5 5 0 0 1 5 5v35" fill="#c3f7c8"/><path d="m1886 1689a5 5 0 0 1 5-5h270a5 5 0 0 1 5 5v303a5 5 0 0 1 -5 5h-270a5 5 0 0 1 -5-5zm0 35h280" fill="none" stroke="#3a414a"/><g transform="translate(1907.2 1709.155556)"><path d="m18-101c0-91 52-150 145-150 68 0 111 34 111 101 0 96-53 154-146 154-69 0-110-37-110-105zm202-32c4-46-15-77-59-77-65 0-88 46-91 108-2 41 22 65 60 65 60 0 84-40 90-96" fill="#333" transform="scale(.04938272)"/><use transform="matrix(.04938272 0 0 .04938272 13.82716 0)" xlink:href="#a"/><use transform="matrix(.04938272 0 0 .04938272 20.740741 0)" xlink:href="#c"/><use transform="matrix(.04938272 0 0 .04938272 31.555556 0)" xlink:href="#A"/><use transform="matrix(.04938272 0 0 .04938272 41.432099 0)" xlink:href="#a"/></g><g transform="translate(1902.2 1746.655556)"><use transform="scale(.04938272)" xlink:href="#h"/><use transform="matrix(.04938272 0 0 .04938272 9.876543 0)" xlink:href="#g"/><use transform="matrix(.04938272 0 0 .04938272 15.753086 0)" xlink:href="#i"/><use transform="matrix(.04938272 0 0 .04938272 25.62963 0)" xlink:href="#q"/><use transform="matrix(.04938272 0 0 .04938272 35.506173 0)" xlink:href="#g"/><use transform="matrix(.04938272 0 0 .04938272 41.382716 0)" xlink:href="#m"/><use transform="matrix(.04938272 0 0 .04938272 51.259259 0)" xlink:href="#B"/><use transform="matrix(.04938272 0 0 .04938272 56.197531 0)" xlink:href="#C"/><path d="m-.9 1.23h70.8v1.3h-70.8z" fill="#333"/></g><g transform="translate(1902.2 1781.655556)"><use transform="scale(.04938272)" xlink:href="#h"/><use transform="matrix(.04938272 0 0 .04938272 9.876543 0)" xlink:href="#g"/><use transform="matrix(.04938272 0 0 .04938272 15.753086 0)" xlink:href="#i"/><use transform="matrix(.04938272 0 0 .04938272 25.62963 0)" xlink:href="#q"/><use transform="matrix(.04938272 0 0 .04938272 35.506173 0)" xlink:href="#g"/><use transform="matrix(.04938272 0 0 .04938272 41.382716 0)" xlink:href="#m"/><use transform="matrix(.04938272 0 0 .04938272 51.259259 0)" xlink:href="#o"/><use transform="matrix(.04938272 0 0 .04938272 61.135802 0)" xlink:href="#p"/><use transform="matrix(.04938272 0 0 .04938272 75.901235 0)" xlink:href="#h"/><use transform="matrix(.04938272 0 0 .04938272 85.777778 0)" xlink:href="#j"/><use transform="matrix(.04938272 0 0 .04938272 95.654321 0)" xlink:href="#n"/><use transform="matrix(.04938272 0 0 .04938272 105.530864 0)" xlink:href="#l"/></g><g transform="translate(1902.2 1816.655556)"><use transform="scale(.04938272)" xlink:href="#h"/><use transform="matrix(.04938272 0 0 .04938272 9.876543 0)" xlink:href="#g"/><use transform="matrix(.04938272 0 0 .04938272 15.753086 0)" xlink:href="#i"/><use transform="matrix(.04938272 0 0 .04938272 25.62963 0)" xlink:href="#q"/><use transform="matrix(.04938272 0 0 .04938272 35.506173 0)" xlink:href="#g"/><use transform="matrix(.04938272 0 0 .04938272 41.382716 0)" xlink:href="#m"/><use transform="matrix(.04938272 0 0 .04938272 51.259259 0)" xlink:href="#i"/><use transform="matrix(.04938272 0 0 .04938272 61.135802 0)" xlink:href="#o"/><use transform="matrix(.04938272 0 0 .04938272 71.012346 0)" xlink:href="#l"/><use transform="matrix(.04938272 0 0 .04938272 75.950617 0)" xlink:href="#q"/></g><g transform="translate(1902.2 1851.655556)"><use transform="scale(.04938272)" xlink:href="#h"/><use transform="matrix(.04938272 0 0 .04938272 9.876543 0)" xlink:href="#g"/><use transform="matrix(.04938272 0 0 .04938272 15.753086 0)" xlink:href="#i"/><use transform="matrix(.04938272 0 0 .04938272 25.62963 0)" xlink:href="#q"/><use transform="matrix(.04938272 0 0 .04938272 35.506173 0)" xlink:href="#g"/><use transform="matrix(.04938272 0 0 .04938272 41.382716 0)" xlink:href="#m"/><use transform="matrix(.04938272 0 0 .04938272 51.259259 0)" xlink:href="#s"/><use transform="matrix(.04938272 0 0 .04938272 60.148148 0)" xlink:href="#l"/><use transform="matrix(.04938272 0 0 .04938272 65.08642 0)" xlink:href="#o"/><use transform="matrix(.04938272 0 0 .04938272 74.962963 0)" xlink:href="#l"/><use transform="matrix(.04938272 0 0 .04938272 79.901235 0)" xlink:href="#j"/><use transform="matrix(.04938272 0 0 .04938272 89.777778 0)" xlink:href="#s"/></g><g transform="translate(1902.2 1886.588889)"><use transform="scale(.04938272)" xlink:href="#h"/><use transform="matrix(.04938272 0 0 .04938272 9.876543 0)" xlink:href="#g"/><use transform="matrix(.04938272 0 0 .04938272 15.753086 0)" xlink:href="#i"/><use transform="matrix(.04938272 0 0 .04938272 25.62963 0)" xlink:href="#q"/><use transform="matrix(.04938272 0 0 .04938272 35.506173 0)" xlink:href="#g"/><use transform="matrix(.04938272 0 0 .04938272 41.382716 0)" xlink:href="#m"/><use transform="matrix(.04938272 0 0 .04938272 51.259259 0)" xlink:href="#t"/><use transform="matrix(.04938272 0 0 .04938272 61.135802 0)" xlink:href="#r"/><use transform="matrix(.04938272 0 0 .04938272 65.037037 0)" xlink:href="#w"/><use transform="matrix(.04938272 0 0 .04938272 68.938272 0)" xlink:href="#w"/><use transform="matrix(.04938272 0 0 .04938272 72.839506 0)" xlink:href="#r"/><use transform="matrix(.04938272 0 0 .04938272 76.740741 0)" xlink:href="#n"/><use transform="matrix(.04938272 0 0 .04938272 86.617284 0)" xlink:href="#u"/><use transform="matrix(.04938272 0 0 .04938272 96.493827 0)" xlink:href="#m"/><use transform="matrix(.04938272 0 0 .04938272 106.37037 0)" xlink:href="#o"/><use transform="matrix(.04938272 0 0 .04938272 116.246914 0)" xlink:href="#i"/><use transform="matrix(.04938272 0 0 .04938272 126.123457 0)" xlink:href="#i"/><use transform="matrix(.04938272 0 0 .04938272 136 0)" xlink:href="#g"/><use transform="matrix(.04938272 0 0 .04938272 141.876543 0)" xlink:href="#q"/><use transform="matrix(.04938272 0 0 .04938272 151.753086 0)" xlink:href="#s"/><use transform="matrix(.04938272 0 0 .04938272 160.641975 0)" xlink:href="#s"/></g><use transform="translate(1926.891358 1911.122222)" xlink:href="#G"/><use transform="translate(1926.891358 1935.655556)" xlink:href="#H"/><use transform="translate(1926.891358 1960.188889)" xlink:href="#I"/><use transform="translate(1926.891358 1984.722222)" xlink:href="#J"/><path d="m1363.98 1930.48a9.14 9.14 0 0 1 12.04 0l67.96 59.46a7 7 0 0 1 0 10.54l-67.96 59.46a9.14 9.14 0 0 1 -12.04 0l-67.96-59.46a7 7 0 0 1 0-10.54z" fill="#fff7a1" stroke="#3a414a"/><g transform="translate(1327.066728 1986.441882)"><path d="m160-131c35 5 61 23 61 61 0 87-106 68-191 70v-248c76 3 177-17 177 60 0 33-19 50-47 57zm-97-11c50-1 110 9 110-42 0-47-63-36-110-37zm0 115c55-2 124 14 124-45 0-56-70-42-124-44z" fill="#3a414a" transform="scale(.04938272)"/><use transform="matrix(.04938272 0 0 .04938272 11.851852 0)" xlink:href="#P"/><path d="m30 0v-248h33v221h125v27z" fill="#3a414a" transform="matrix(.04938272 0 0 .04938272 23.703704 0)"/><use transform="matrix(.04938272 0 0 .04938272 33.580247 0)" xlink:href="#X"/><use transform="matrix(.04938272 0 0 .04938272 47.407407 0)" xlink:href="#N"/><use transform="matrix(.04938272 0 0 .04938272 60.197531 0)" xlink:href="#O"/><use transform="matrix(.04938272 0 0 .04938272 74.024691 0)" xlink:href="#Q"/></g><g transform="translate(1357.856852 2007.775215)"><use transform="scale(.04938272)" xlink:href="#Y"/><use transform="matrix(.04938272 0 0 .04938272 10.469136 0)" xlink:href="#X"/></g><path d="m1370 1766v161.2" fill="none" stroke="#3a414a"/><path d="m1370.5 1766h-1v-.5h1zm0 161.75-.5-.04-.5.05v-.55h1z" fill="#3a414a" stroke="#3a414a" stroke-width=".05"/><use transform="translate(1378 1924.314272)" xlink:href="#av"/><path d="m1230 2206a5 5 0 0 1 5-5h270a5 5 0 0 1 5 5v100a5 5 0 0 1 -5 5h-270a5 5 0 0 1 -5-5z" fill="#fff"/><path d="m1230 2276v30a5 5 0 0 0 5 5h270a5 5 0 0 0 5-5v-30" fill="#f2f3f5"/><path d="m1230 2241v-35a5 5 0 0 1 5-5h270a5 5 0 0 1 5 5v35" fill="#c3f7c8"/><path d="m1230 2206a5 5 0 0 1 5-5h270a5 5 0 0 1 5 5v100a5 5 0 0 1 -5 5h-270a5 5 0 0 1 -5-5zm0 35h280" fill="none" stroke="#333"/><g transform="translate(1251.2 2226.155556)"><use transform="scale(.04938272)" xlink:href="#y"/><use transform="matrix(.04938272 0 0 .04938272 12.790123 0)" xlink:href="#ac"/><use transform="matrix(.04938272 0 0 .04938272 22.666667 0)" xlink:href="#e"/><use transform="matrix(.04938272 0 0 .04938272 28.54321 0)" xlink:href="#A"/><path d="m45-171c29-32 103-29 114 14 2-11 5-23 8-33h47l-38 188c-3 70-92 96-155 64-12-6-20-20-22-37l50-5c2 28 48 27 63 11 13-13 20-45 21-66-13 20-30 35-62 36-87 3-60-134-26-172zm49 136c41-3 55-43 55-86 0-24-12-39-35-39-43 0-51 48-51 90 0 22 9 37 31 35" fill="#333" transform="matrix(.04938272 0 0 .04938272 38.419753 0)"/><use transform="matrix(.04938272 0 0 .04938272 49.234568 0)" xlink:href="#b"/><use transform="matrix(.04938272 0 0 .04938272 60.049383 0)" xlink:href="#a"/><use transform="matrix(.04938272 0 0 .04938272 66.962963 0)" xlink:href="#aw"/></g><g transform="translate(1246.2 2263.655556)"><use transform="scale(.04938272)" xlink:href="#k"/><use transform="matrix(.04938272 0 0 .04938272 8.888889 0)" xlink:href="#o"/><use transform="matrix(.04938272 0 0 .04938272 18.765432 0)" xlink:href="#l"/><use transform="matrix(.04938272 0 0 .04938272 23.703704 0)" xlink:href="#q"/><use transform="matrix(.04938272 0 0 .04938272 33.580247 0)" xlink:href="#u"/><use transform="matrix(.04938272 0 0 .04938272 43.45679 0)" xlink:href="#h"/><use transform="matrix(.04938272 0 0 .04938272 53.333333 0)" xlink:href="#g"/><use transform="matrix(.04938272 0 0 .04938272 59.209877 0)" xlink:href="#x"/><use transform="matrix(.04938272 0 0 .04938272 68.098765 0)" xlink:href="#m"/><use transform="matrix(.04938272 0 0 .04938272 77.975309 0)" xlink:href="#B"/><use transform="matrix(.04938272 0 0 .04938272 82.91358 0)" xlink:href="#C"/><path d="m-.9 1.23h97.5v1.3h-97.5z" fill="#333"/></g><g transform="translate(1246.2 2298.655556)"><use transform="scale(.04938272)" xlink:href="#k"/><use transform="matrix(.04938272 0 0 .04938272 8.888889 0)" xlink:href="#o"/><use transform="matrix(.04938272 0 0 .04938272 18.765432 0)" xlink:href="#l"/><use transform="matrix(.04938272 0 0 .04938272 23.703704 0)" xlink:href="#q"/><use transform="matrix(.04938272 0 0 .04938272 33.580247 0)" xlink:href="#u"/><use transform="matrix(.04938272 0 0 .04938272 43.45679 0)" xlink:href="#h"/><use transform="matrix(.04938272 0 0 .04938272 53.333333 0)" xlink:href="#g"/><use transform="matrix(.04938272 0 0 .04938272 59.209877 0)" xlink:href="#x"/><use transform="matrix(.04938272 0 0 .04938272 68.098765 0)" xlink:href="#m"/><use transform="matrix(.04938272 0 0 .04938272 77.975309 0)" xlink:href="#n"/><use transform="matrix(.04938272 0 0 .04938272 87.851852 0)" xlink:href="#o"/><use transform="matrix(.04938272 0 0 .04938272 97.728395 0)" xlink:href="#p"/><use transform="matrix(.04938272 0 0 .04938272 112.493827 0)" xlink:href="#q"/></g><path d="m1370 2200v-136.8" fill="none" stroke="#3a414a"/><path d="m1370.5 2200.5h-1v-.5h1zm-.5-137.8.5-.03v.55h-1v-.55z" fill="#3a414a" stroke="#3a414a" stroke-width=".05"/><g transform="translate(1378 2081.281134)"><use transform="scale(.05)" xlink:href="#au"/><use transform="matrix(.05 0 0 .05 10 0)" xlink:href="#as"/><use transform="matrix(.05 0 0 .05 15 0)" xlink:href="#as"/><use transform="matrix(.05 0 0 .05 20 0)" xlink:href="#ar"/></g></g></svg>